<?xml version="1.0" encoding="UTF-8" standalone="no"?><!DOCTYPE svg PUBLIC "-//W3C//DTD SVG 1.1//EN" "http://www.w3.org/Graphics/SVG/1.1/DTD/svg11.dtd"><svg width="100%" height="100%" viewBox="0 0 150 64" version="1.1" xmlns="http://www.w3.org/2000/svg" xmlns:xlink="http://www.w3.org/1999/xlink" xml:space="preserve" style="fill-rule:evenodd;clip-rule:evenodd;stroke-linejoin:round;stroke-miterlimit:1.41421;"><g><rect x="87.644" y="17.843" width="6.499" height="27.241" style="fill:#90122a;fill-rule:nonzero;"/><path d="M114.105,17.337c-8.406,0 -14.34,5.876 -14.34,14.126c0,8.251 5.934,14.127 14.34,14.127c5.215,0 9.359,-2.316 11.85,-6.032l-5.331,-3.775c-1.557,2.316 -3.814,3.58 -6.577,3.58c-4.028,0 -7.511,-2.841 -7.511,-7.9c0,-4.67 3.191,-7.9 7.491,-7.9c2.822,0 5.059,1.285 6.48,3.6l5.701,-3.269c-2.316,-4.125 -6.908,-6.557 -12.103,-6.557Z" style="fill:#90122a;fill-rule:nonzero;"/><path d="M149.066,29.438l-10.913,0l0,-5.738l11.847,0l0,-5.857l-18.346,0l0,27.241l6.499,0l0,-9.77l10.913,0l0,-5.876Z" style="fill:#90122a;fill-rule:nonzero;"/><path d="M35.826,26.102c-0.878,0.335 -1.32,1.32 -0.985,2.199c0.335,0.879 1.32,1.32 2.199,0.985c0.879,-0.335 1.32,-1.32 0.985,-2.199c-0.334,-0.878 -1.32,-1.32 -2.199,-0.985Z" style="fill:#90122a;"/><path d="M31.138,7.314c0.426,-0.219 0.668,-0.408 1.095,-0.628c0.008,-0.179 -0.195,-0.278 -0.331,-0.403c0.193,-0.127 0.339,-0.367 0.685,-0.12c0.73,1.156 1.45,-1.084 2.478,-0.521c-0.754,0.484 -1.543,0.88 -2.248,1.478c0.402,0.187 0.585,-0.163 0.85,-0.314c0.326,0.499 -0.318,0.264 -0.354,0.524c0.232,0.172 0.467,0.346 0.701,0.523c0.059,-0.238 -0.093,-0.399 -0.022,-0.647c0.332,0.037 0.592,0.281 0.831,0.467c0.118,-0.156 0.206,-0.297 0.321,-0.393c-0.168,-0.046 -0.341,-0.088 -0.468,-0.194c-0.086,-0.275 -0.02,-0.599 -0.253,-0.82c0.209,0.113 1.126,1.384 1.478,0.633c0.014,-0.267 -0.146,-0.468 -0.419,-0.629c0.086,-0.334 0.468,0.1 0.81,0.31c0.105,-0.158 0.205,-0.332 0.311,-0.488c-0.098,-0.128 -0.182,-0.261 -0.08,-0.462c0.105,0.049 0.101,0.136 0.092,0.225c0.021,0.06 0.05,0.09 0.08,0.108c0.188,-0.239 0.407,-0.388 0.722,-0.246c-0.114,0.145 -0.219,0.318 -0.325,0.486c0.031,0.058 0.06,0.129 0.085,0.231c0.086,-0.141 0.501,-0.465 0.631,0.162c0.129,-0.152 0.409,0.07 0.452,-0.292c-0.121,-0.34 -0.563,-0.561 -0.762,-0.869c-0.091,-0.021 -0.183,-0.038 -0.273,-0.053c0.198,-0.537 0.698,-0.165 1.004,-0.377c-0.009,-0.08 -0.004,-0.164 0.05,-0.266c0.467,0.004 0.819,-0.282 1.225,-0.433c0.013,-0.047 0.027,-0.091 0.04,-0.136c-0.068,-0.133 -0.356,0.002 -0.571,-0.334c0.18,-0.233 0.42,-0.076 0.652,0.088c0.04,-0.118 0.076,-0.241 0.119,-0.355c0.024,0.57 0.241,0.285 0.47,0.479c0.043,-0.061 0.081,-0.153 0.107,-0.297c0.022,0.008 0.049,0.024 0.077,0.042c0.098,-0.643 0.442,-1.449 0.667,-0.828c-0.125,0.226 -0.304,0.59 -0.455,1.013c0.154,0.143 0.299,0.267 0.321,0.077c0.294,0.263 -0.205,0.116 -0.101,0.558c0.115,0.088 0.233,0.175 0.35,0.265c0.085,-0.199 0.215,-0.294 0.356,-0.358c-0.13,-0.113 -0.251,-0.231 -0.24,-0.37c0.345,0.171 0.289,-0.069 0.239,-0.352c-0.05,0.088 -0.084,0.198 -0.085,0.336c-0.278,-0.196 -0.53,-0.324 -0.709,-0.271c-0.015,0.009 -0.029,0.015 -0.043,0.018c0.013,-0.007 0.028,-0.013 0.043,-0.018c0.227,-0.138 0.463,-0.983 1.07,-0.408c0.008,0.002 0.021,0.008 0.03,0.009c0.14,-0.435 -0.348,-0.646 -0.196,-1.084c0.593,0.718 1.417,0.362 2.104,0.179c0.002,-0.472 -0.274,-0.059 -0.465,-0.357c0.308,-0.095 0.014,-0.439 0.158,-0.83c0.516,0.209 0.776,-0.231 1.325,0.064c0.255,-0.886 0.58,-0.024 1.65,0.472c-0.339,0.04 -0.755,-0.129 -0.977,0.202c-0.209,-0.101 -0.198,-0.276 -0.179,-0.455c-0.258,-0.104 -0.449,-0.039 -0.572,0.196c-0.09,0.253 0.341,0.228 0.375,0.127c0.045,0.399 -0.256,1.678 -0.875,1.077c0.014,0.327 -0.147,0.539 -0.364,0.683c0.055,0.223 -0.066,0.477 0.265,0.652c0.524,-0.062 0.217,-0.143 0.566,0.515c0.114,-0.385 0.229,-0.774 0.344,-1.159c0.343,0.242 0.594,0.198 0.755,-0.128c-0.312,-0.473 -0.335,-0.05 -0.531,-0.155c0.192,-0.358 0.159,-0.679 0.005,-0.979c0.283,0.045 0.393,-0.434 0.834,0.103c-0.052,0.335 -0.108,0.672 0.299,0.927c0.082,-0.651 0.204,-1.309 0.321,-1.964c-0.158,-0.059 -0.336,-0.167 -0.536,-0.325c0.314,0.019 0.767,-0.277 1.017,0.144c0.111,-0.346 0.157,-0.894 0.537,-0.398c0.125,0.52 -0.249,0.359 0.034,0.853c-0.295,-0.254 -0.327,0.308 -0.535,0.329c0.141,0.178 0.162,0.381 0.413,0.542c0.079,-0.257 0.156,-0.513 0.235,-0.768c0.392,0.807 0.499,-0.096 0.945,0.208c-0.365,0.833 -1.321,0.546 -0.96,2.233c0.744,0.208 1.147,-2.352 2.045,-0.58c0.177,-0.032 0.266,-0.335 0.347,-0.667c-0.127,-0.14 -0.327,-0.27 -0.298,-0.438c1.202,0.111 1.953,-1.217 3.197,-0.986c-0.15,-0.183 -0.043,-0.403 -0.107,-0.592c0.392,0.485 0.398,-0.261 0.722,0.011c-0.044,0.541 -0.495,0.386 -0.126,0.867c0.454,-0.074 0.929,-0.086 1.296,-0.44c0.351,0.192 0.234,0.452 0.523,0.651c0.018,-0.202 -0.083,-0.391 0.046,-0.613c0.265,0.244 0.263,0.526 0.634,0.754c0.16,-0.462 0.241,-0.244 0.242,-0.762c0.302,0.44 0.284,0.929 0.582,1.37c0.242,-0.253 0.413,-0.73 0.844,-0.363c-0.028,0.083 -0.053,0.169 -0.081,0.252c0.064,0.072 0.125,0.142 0.071,0.232c-0.29,-0.481 -0.714,-0.122 -0.496,0.194c0.553,-0.142 0.941,-0.194 1.155,-0.896c0.301,0.658 0.451,0.079 0.67,0.629c-0.089,-0.302 0.004,-0.606 0.274,-0.4c-0.153,0.506 -0.011,0.97 0.427,1.392c-0.129,0.109 -0.262,0.199 -0.395,0.292c0.144,0.016 0.298,0.071 0.437,0.212c0.035,-0.035 0.073,-0.068 0.112,-0.095c-0.066,-0.085 -0.108,-0.176 -0.011,-0.31c0.119,-0.151 0.351,-0.002 0.493,-0.093c-0.084,-0.282 -0.123,-0.634 -0.035,-0.817c-0.291,-0.279 -0.052,0.85 -0.458,0.269c-0.131,-0.554 0.465,-0.659 0.895,-0.402c0.176,-0.313 -0.088,-0.485 0.031,-0.776c0.513,0.29 1.426,0.527 1.356,-0.03c0.083,-0.159 0.204,0.151 0.2,0.32c0.297,0.003 0.617,0.072 0.667,-0.586c0.252,0.291 0.347,0.167 0.521,0.253c0.034,0.007 0.072,0.007 0.103,0.018c-0.025,-0.322 -0.116,-0.632 -0.282,-0.932c0.359,0.228 0.523,0.076 0.278,-0.397c0.296,0.28 0.372,-0.172 0.681,0.148c-0.023,0.358 -0.191,0.723 -0.401,1.022c0.187,0.033 0.371,0.054 0.587,0.161c0.237,-0.129 0.472,-0.244 0.702,-0.381c0.002,-0.015 0.01,-0.022 0.011,-0.037c0.003,0.01 0.008,0.01 0.013,0.023c0.382,-0.23 0.755,-0.543 1.118,-1.171c0.28,0.407 0.347,0.1 0.6,0.409c-0.167,0.901 -0.99,1.109 -0.946,2.413c0.073,0.07 0.148,0.142 0.224,0.214c0.602,-0.985 1.009,-2.639 2.18,-1.724c0.594,-0.571 1.428,-1.503 2.16,-0.745c-0.089,-0.306 0.06,-0.444 0.28,-0.395c-0.143,0.297 -0.141,0.579 0.163,0.823c0.18,-0.11 0.417,-0.025 0.75,0.395c0.119,-0.303 0.345,-0.189 0.059,-0.611c-0.069,0.133 -0.102,0.374 -0.24,0.268c-0.158,-0.743 0.479,-0.575 0.581,-1.27c0.642,1.438 1.613,1.098 2.427,1.527c0.048,0.611 0.664,0.889 1.06,1.206c0.409,1.596 -0.41,2.989 -1.361,3.998c-0.223,-0.52 0.121,-0.444 -0.01,-0.841c-0.559,-0.279 -0.448,0.788 -1.083,0.607c0.464,2.067 -1.988,1.491 -2.312,2.565c-1.168,-0.622 -2.155,0.486 -2.52,1.041c0.234,0.063 0.633,-0.663 0.826,0.136c-0.507,0.448 -1.131,0.209 -1.341,1.02c-0.599,-0.104 -1.615,0.107 -1.452,0.915c-0.014,0.002 -0.027,0.003 -0.04,0.004c0.02,0.134 0.109,0.286 0.24,0.389c-0.037,-0.367 0.117,-0.233 0.317,-0.088c0.102,-0.577 0.471,-0.378 0.673,-0.724c0.173,0.337 -0.249,0.3 -0.039,0.672c0.269,-0.004 0.214,-0.545 0.684,-0.218c0.05,-0.287 0.255,-0.316 0.415,-0.419c-0.003,-0.15 -0.097,-0.234 -0.064,-0.409c0.064,0.022 0.153,0.088 0.16,0.018c-0.148,-0.064 -0.187,-0.191 -0.112,-0.245c0.265,0.128 0.112,0.302 0.119,0.499c0.164,-0.121 0.024,0.201 0.218,0.236c-0.086,-0.254 -0.011,-0.427 0.154,-0.174c-0.087,0.195 -0.016,0.396 -0.202,0.401c0.054,0.027 0.065,0.084 0.108,0.118c0.156,0.075 0.119,-0.295 0.265,-0.055c-0.113,0.243 -0.436,0.141 -0.521,0.429c0.035,0.106 0.207,0.114 0.218,0.236c-0.17,-0.116 -0.117,0.135 -0.319,-0.035c-0.011,-0.079 0.005,-0.176 -0.058,-0.218c-0.109,0.059 -0.26,0.374 -0.096,0.518c-0.165,-0.129 -0.155,0.03 -0.32,-0.099c-0.048,-0.285 0.255,0.01 0.206,-0.273c-0.262,-0.04 -0.244,0.08 -0.587,-0.173c0.004,0.088 -0.022,0.126 -0.049,0.163c0.108,0.161 0.067,0.029 0.214,0.11c-0.001,0.107 0.044,0.183 0.111,0.245c0.018,0.235 -0.155,0.152 -0.152,0.364c0.177,0.198 0.252,-0.174 0.268,0.136c-0.154,0.075 -0.435,0.263 -0.581,0.144c0.116,0.05 0.111,-0.101 0.101,-0.263c-0.344,-0.128 -0.446,0.366 -0.687,0.215c-0.005,0.11 0.056,0.175 0.163,0.209c0.008,0.062 0.007,0.109 0.002,0.149c0.505,0.046 0.955,0.078 1.468,0.303c-0.092,0.083 0.007,0.235 0.039,0.396c0.158,0.078 0.15,-0.085 0.308,-0.008c-0.064,0.19 -0.227,0.069 -0.176,0.314c-0.322,-0.202 -0.247,0.407 -0.502,0.122c-0.116,-0.037 0.005,0.272 -0.015,0.376c-0.201,0.068 -0.376,0.173 -0.537,0.299c0.287,0.096 0.36,0.05 0.795,0.249c-0.489,0.279 -1.084,0.674 -1.79,0.851c0,0.127 0.038,0.249 0.146,0.362c0.418,0.285 0.518,-0.488 1.058,0.192c0.008,-0.002 0.015,-0.005 0.023,-0.007l0.005,-0.006c0.018,-0.152 -0.087,-0.287 -0.001,-0.448c0.17,0.149 0.326,0.253 0.47,0.318c0.727,-0.09 1.179,-0.582 1.957,-0.604c0.014,0.325 -0.222,0.287 -0.14,0.711c-0.124,0.023 -0.221,0.083 -0.273,0.211c0.274,0.076 0.508,0.019 0.85,0.317c-0.398,0.47 -0.841,0.792 -1.299,1.059c0.051,0.038 0.107,0.07 0.107,0.156c-0.105,0.298 -0.432,0.054 -0.71,0.171c0.098,0.298 0.477,0.264 0.649,0.317c-0.036,0.043 -0.044,0.128 -0.03,0.245c-0.052,-0.022 -0.049,-0.097 -0.065,-0.154c-0.173,-0.025 -0.105,0.212 -0.31,0.007c0.004,0.117 0.079,0.166 0.076,0.285c-0.268,-0.008 -0.402,0.179 -0.539,0.365c-0.137,-0.062 -0.216,-0.178 -0.236,-0.349c-0.127,-0.071 -0.206,-0.071 -0.263,-0.041c0.066,0.224 0.164,0.418 0.259,0.614c0.079,-0.039 0.194,-0.053 0.321,-0.044c0.049,-0.046 0.118,-0.064 0.186,-0.022c-0.002,0.018 -0.007,0.033 -0.013,0.046c0.133,0.031 0.267,0.086 0.388,0.164c0,-0.006 0.002,-0.01 0.003,-0.017c0.168,0.156 0.192,0.141 0.107,-0.073c0.187,0.147 0.228,0.047 0.324,0.039c-0.007,0.045 -0.023,0.077 -0.04,0.106c0.304,-0.132 0.597,-0.283 0.764,-0.618c0.156,0.42 0.308,0.106 0.412,-0.032c-0.09,-0.219 -0.122,0.124 -0.257,0.028c0,-0.306 0.392,-0.043 0.562,-0.103c0.014,-0.202 -0.203,-0.166 -0.078,-0.287c0.23,0.275 0.577,-0.013 0.704,-0.245c0.332,0.149 0.42,-0.128 0.71,-0.179c0.219,0.283 -0.136,0.221 -0.178,0.318c0.288,0.026 0.932,-0.009 1.037,-0.574c0.453,0.181 0.922,-0.808 1.498,-0.09c0.111,-0.264 0.443,0.062 0.5,-0.203c-0.099,-0.152 -0.167,-0.015 -0.283,-0.231c0.601,-0.05 1.296,0.05 1.727,0.621c0,0.221 -0.072,0.505 0.122,0.687c-0.075,0.393 -0.454,0.631 -0.139,1.239c-0.264,-0.154 -0.38,0.108 -0.589,-0.147c0.001,-0.076 0.092,-0.022 0.156,-0.009c-0.066,-0.212 -0.089,-0.104 -0.223,-0.146c0.052,0.227 0.016,0.331 -0.07,0.362c0.001,0.169 0.096,0.247 0.236,0.278c-0.043,0.089 -0.131,0.102 -0.21,-0.011c0.058,0.454 -0.484,0.484 -0.839,0.531c-0.007,0.646 -0.679,0.336 -1.177,0.273c0.004,0.045 0.008,0.09 0.012,0.134c0.431,0.369 0.725,0.145 1.076,0.333c0.037,0.17 -0.086,0.109 -0.024,0.315c-0.311,-0.047 -0.519,-0.005 -0.7,0.062c0.003,0.005 0.001,0.007 0.004,0.011c-0.005,-0.004 -0.01,-0.003 -0.016,-0.007c-0.108,0.041 -0.211,0.09 -0.319,0.136c-0.023,0.102 -0.065,0.17 -0.105,0.243c0.159,0.009 0.328,0.051 0.456,0.141c0.025,0.191 -0.149,0.095 -0.134,0.271c-0.095,-0.212 -0.191,-0.197 -0.21,-0.013c-0.058,-0.138 -0.138,-0.253 -0.241,-0.349c-0.004,0.014 -0.015,0.027 -0.022,0.04c-0.018,0.083 -0.086,0.081 -0.055,0.246c-0.237,-0.162 -0.3,-0.035 -0.38,0.067c0.059,0.045 0.131,0.17 0.055,0.155c-0.17,-0.175 -0.338,0.2 -0.378,0.452c-0.131,-0.038 -0.118,-0.174 -0.272,-0.199c-0.03,0.215 -0.227,0.389 -0.379,0.194c-0.088,-0.295 0.231,0.092 0.215,-0.082c-0.086,-0.02 -0.195,-0.129 -0.268,-0.233c-0.069,0.023 -0.081,0.142 -0.165,0.142c-0.072,-0.003 -0.091,-0.042 -0.102,-0.088c-0.007,0.002 -0.014,0.004 -0.021,0.005c0.037,0.057 0.074,0.111 0.111,0.159l0.007,-0.001l0.001,0.012c0.093,0.117 0.193,0.194 0.326,0.173c-0.026,0.095 -0.053,0.188 -0.081,0.279c0.033,0.023 0.07,0.042 0.111,0.058c-0.003,0.113 -0.077,0.11 -0.147,0.054c-0.024,0.073 -0.049,0.144 -0.075,0.214c0.006,0.029 0.019,0.066 0.044,0.115c-0.027,-0.011 -0.053,-0.019 -0.077,-0.026c-0.098,0.255 -0.207,0.496 -0.326,0.727c0.044,0.066 0.083,0.135 0.108,0.218c-0.106,-0.084 -0.129,-0.086 -0.174,-0.09c-0.037,0.069 -0.075,0.138 -0.114,0.206c0.021,0.055 0.043,0.109 0.048,0.18c-0.052,-0.008 -0.087,-0.031 -0.118,-0.058c-0.017,0.029 -0.034,0.058 -0.051,0.087c0.023,0.045 0.041,0.094 0.028,0.174c-0.061,0.008 -0.115,0.025 -0.164,0.049c-0.085,0.137 -0.172,0.273 -0.261,0.409c0.049,0.018 0.114,-0.021 0.22,0.036l-0.242,0.189c-0.029,-0.022 -0.057,-0.045 -0.074,-0.077c-0.072,0.109 -0.145,0.218 -0.218,0.33c0.079,0.047 0.165,0.114 0.265,0.218c-0.093,0.241 -0.064,0.443 0.143,0.592c0.073,-0.649 1.108,-0.125 1.371,-0.926c-0.275,-0.251 -0.54,-0.478 -0.618,-0.195c-0.004,-0.434 0.739,-0.67 1.093,-0.84c0.536,0.475 -0.242,0.075 -0.139,0.678c0.376,0.311 0.477,-0.12 0.872,0.249c0.015,0.209 0.088,0.399 0.283,0.552c-0.067,0.379 -0.244,0.116 -0.111,0.541c0.105,0.005 0.212,0.013 0.365,0.147c0.037,-0.98 0.225,-0.775 0.531,-1.304c-0.44,-0.495 -0.345,0.475 -0.786,-0.021c0.004,-0.482 0.275,-0.235 0.28,-0.717c0.023,0.501 0.806,0.681 1.069,0.57c0.015,-0.174 -0.181,-0.285 -0.309,-0.417c-0.015,-0.606 0.36,-0.152 0.395,-0.625c0.203,0.196 -0.028,0.517 0.112,0.73c0.64,0.261 0.921,-0.464 1.519,-0.318c0.223,0.607 -0.39,0.009 -0.478,0.396c-0.001,0.126 0.084,0.228 0.057,0.364c0.276,-0.328 0.534,0.089 1.011,0.212c0.217,0.659 -0.202,0.547 -0.535,0.028c-0.215,0.399 0.566,0.609 0.111,0.731c0.345,0.294 0.877,0.269 0.727,0.929c-0.205,0.057 -0.376,-0.194 -0.28,-0.553c-0.134,-0.088 -0.144,0.169 -0.196,0.313c-0.362,-0.192 -0.379,-0.482 -0.645,-0.702c-0.415,0.14 -0.762,0.467 -1.348,0.146c-0.087,1.314 -0.981,0.438 -1.375,0.916c0.368,0.912 0.908,0.1 1.264,0.895c-0.912,-0.134 -1.083,0.817 -2.269,0.172c-0.024,0.567 -0.005,1.037 -0.612,0.442c-0.003,0.557 0.303,1.098 0.675,1.195c0.004,0.354 -0.253,0.016 -0.304,0.221c-0.005,-0.424 -0.593,-0.669 -0.427,-1.143c-0.267,0.742 -1.074,0.038 -1.508,0.333c0.819,0.292 1.41,0.667 1.57,0.666c0.101,0.9 -1.15,-0.033 -1.676,-0.12c0.187,0.603 -0.357,0.583 -0.638,0.58c-0.116,-0.134 -0.023,-0.331 -0.171,-0.459c-0.098,-0.046 -0.141,0.045 -0.253,-0.048c0.047,0.197 0.232,0.354 0.145,0.591c-0.574,0.197 -1.33,-0.093 -1.95,-0.021c-0.002,0.127 0.083,0.226 0.057,0.362c0.71,0.048 1.063,0.388 1.735,0.478c-0.293,0.67 -0.95,0.365 -1.328,0.803c-0.32,-0.364 0.164,-0.201 0.105,-0.544c-0.225,-0.252 -0.317,-0.153 -0.478,-0.236c-0.192,0.437 0.254,0.948 -0.069,1.05c-0.205,-0.15 -0.207,-0.362 -0.423,-0.505c0.026,-0.132 0.156,0.002 0.248,0.046c0.063,-0.314 -0.315,-1.212 0.107,-0.546c0.176,-0.751 -0.414,-0.869 -0.652,-0.688c0.481,0.241 -0.245,0.53 0.209,0.956c-0.105,0.27 -0.599,-0.482 -0.729,-0.279c-0.038,0.503 0.573,0.649 0.791,0.647c0.287,0.248 0.058,0.662 0.346,0.913c-0.144,0.37 -0.597,-0.073 -0.717,0.359c0.202,0.499 0.411,0.265 0.762,0.781c-0.004,0.736 -0.595,-0.066 -0.63,0.585c-0.282,-0.373 0.237,-0.298 0.152,-0.818c-0.202,0.079 -0.44,0.061 -0.578,0.315c0.135,-0.565 -0.132,-0.777 -0.409,-1.278c-0.095,-0.051 -0.138,0.043 -0.251,-0.05c-0.222,0.329 0.345,0.403 0.126,0.733c-0.587,-0.652 -1.997,0.419 -1.534,1.267c-0.343,-0.356 -0.498,-0.062 -0.679,-0.552c-0.23,0.465 0.142,0.728 0.052,1.142c0.3,-0.228 0.824,0.126 1.077,-0.224c-0.016,0.573 -0.795,0.891 -1.313,0.817c-0.049,0.275 0.276,0.426 0.126,0.732c-0.427,-0.257 -0.88,-0.552 -1.075,0.229c-0.262,-0.574 -0.525,-0.401 -0.579,-1.097c-0.014,0.562 -0.558,-0.096 -0.735,0.504c-0.117,-0.897 -0.695,-0.155 -0.905,-0.727c-0.364,0.511 0.554,0.586 0.332,1.049c-0.387,-0.394 -0.602,-0.349 -0.75,-0.132c0.077,0.273 0.253,0.516 0.379,0.774c0.821,0.06 1.337,-0.6 2.096,-0.191c0.009,0.49 -0.417,-0.145 -0.347,0.505c-1.398,-1.005 -1.502,1.32 -2.802,0.563c-0.421,1.439 -2.484,0.766 -2.418,2.129c-0.238,0.185 -0.508,0.282 -0.727,0.513c-0.485,-0.817 -0.708,-0.029 -1.131,-0.119c0.049,0.199 0.237,0.349 0.158,0.594c-0.261,-0.588 -0.756,-0.439 -0.521,0.057c-1.022,-0.426 -1.372,0.836 -2.283,0.687c0.087,-0.398 -0.373,-0.47 -0.543,-0.584c-0.018,0.309 0.493,0.43 0.523,0.723c-0.409,0.784 -1.335,0.283 -1.986,0.463c0.36,0.851 -0.38,1.171 -0.741,0.662c0.034,0.464 -0.214,0.235 -0.22,0.603c-0.205,-0.276 -0.4,-0.343 -0.596,-0.308c0.072,0.793 -0.981,0.81 -0.397,1.796c0.004,-0.031 0.011,-0.041 0.018,-0.076c0.467,0.317 -0.049,0.176 0.029,0.641c0.51,-0.136 0.712,-1.04 1.386,-0.778c-0.06,0.614 -0.506,0.278 -0.715,0.527c-0.029,0.315 0.242,0.521 0.525,0.719c-0.347,0.48 -0.778,-0.665 -1.353,-0.281c-0.049,-0.433 0.009,-0.39 0.079,-0.626c-2.291,-1.002 -3.547,2.402 -5.042,2.303c-0.027,0.17 -0.096,0.335 -0.169,0.499c0.261,-0.385 0.532,0.128 0.847,-0.54c0.208,0.183 0.002,0.522 0.148,0.73c0.111,0.081 0.112,-0.104 0.154,-0.191c0.223,0.259 0.21,0.402 0.052,0.504c0.598,0.509 0.833,0.139 1.423,0.634c0.11,-0.31 0.221,-0.372 -0.013,-0.78c0.293,-0.103 0.969,0.726 1.101,0.232c0.063,-0.287 -0.394,-0.375 -0.546,-0.577c0.094,-0.396 0.515,0.11 0.567,0.439c0.344,0.271 0.213,-0.614 0.555,-0.342c-0.016,-0.256 -0.339,-0.396 -0.145,-0.732c0.658,0.755 1.77,0.585 1.431,-0.28c0.319,-0.039 0.448,-0.548 1.011,0.016c-0.001,-1.049 0.973,-0.171 0.799,-1.082c0.898,1.234 0.957,-1.172 1.953,-0.325c0.441,-0.506 1.148,-0.348 1.547,-0.955c0.062,-0.387 -0.358,0.087 -0.18,-0.452c1.33,0.746 1.642,-1.047 2.795,-0.74c-0.026,0.258 -0.187,0.18 -0.205,0.461c0.004,0.171 0.212,0.275 0.183,0.456c0.366,-0.245 0.552,-0.937 0.948,-1.112c0.183,0.26 -0.025,0.263 -0.068,0.41c0.04,0.457 0.27,-0.197 0.587,0.315c-0.099,-0.309 -0.075,-0.45 0.088,-0.551c0.86,1.175 0.905,-0.817 1.807,-0.112c0.126,-0.388 0.006,-0.69 -0.357,-0.911c0.019,-0.474 0.364,-0.119 0.454,-0.413c0.145,0.164 0.034,0.419 0.02,0.64c0.37,0.419 0.501,0.23 0.722,0.267c0.012,-0.26 -0.141,-0.467 -0.405,-0.636c0.648,0.274 0.972,-0.279 1.473,-0.375c-0.01,-0.256 -0.334,-0.405 -0.13,-0.731c0.729,1.095 1.867,-0.205 2.537,0.179c-0.06,-0.614 0.543,-0.643 -0.081,-1.005c0.247,-0.218 0.392,0.084 0.563,0.458c0.315,-0.016 -0.057,-1.21 0.532,-0.819c0.013,0.438 -0.273,0.093 -0.323,0.359c0.136,0.087 0.196,0.196 0.199,0.323c0.669,-0.265 1.103,-1.146 2.14,-0.447c-0.26,-0.63 -0.171,-0.567 -0.162,-1.232c0.341,0.275 0.192,0.709 0.188,1.094c0.72,0.816 0.519,-0.79 1.182,-0.125c0.262,-0.555 -0.489,-0.783 -0.409,-1.278c0.409,0.337 0.432,0.8 0.683,1.188c0.421,0.331 0.105,-0.527 0.326,-0.361c0,-0.213 -0.261,-0.343 -0.424,-0.505c0.18,-0.235 0.681,-0.022 0.697,0.418c0.194,-0.923 0.445,-0.222 0.478,-1.177c0.621,0.311 0.597,0.121 0.965,-0.304c0.174,0.285 0.037,0.669 0.482,0.868c-0.044,0.226 -0.086,0.454 -0.129,0.682c-0.244,0.096 -0.345,-0.563 -0.411,0.133c-0.201,-0.109 -0.192,-0.282 -0.175,-0.461c-0.411,0.171 -1.834,0.333 -1.16,1.399c-0.037,0.31 -0.411,-0.268 -0.584,-0.325c-0.061,0.541 0.271,0.861 0.594,0.96c-0.089,0.189 -0.812,0.349 -0.721,-0.277c-0.364,-0.083 -0.467,0.517 -1.02,-0.055c-0.024,0.307 0.485,0.44 0.511,0.732c-0.064,0.537 -1.099,-0.122 -0.534,0.817c-0.071,0.324 -0.375,-0.273 -0.311,-0.412c-0.261,0.055 -0.496,0.174 -0.619,0.589c-0.139,-0.17 -0.134,-0.386 -0.287,-0.549c-0.235,-0.145 -0.285,0.189 -0.522,0.045c0.06,0.194 0.166,0.374 0.288,0.546c-0.773,-0.276 -1.345,-0.03 -1.86,0.362c-0.035,0.377 0.226,-0.032 0.448,0.368c-0.078,0.391 -0.477,-0.049 -0.479,0.545c-0.683,-0.491 -0.067,1.135 -0.749,0.64c0.093,-0.155 0.225,-0.21 0.319,-0.364c-0.415,-0.54 -0.306,0.264 -0.721,-0.274c-0.103,0.251 0.114,0.393 0.29,0.548c-0.097,0.082 -0.283,-0.069 -0.295,0.229c-0.415,-0.745 -1.411,0.107 -1.874,0.51c0.014,0.093 0.029,0.138 0.044,0.166c-0.831,0.152 -1.61,0.435 -2.277,1.001c0.004,0.214 0.263,0.338 0.425,0.495c-0.064,0.674 -0.588,-0.043 -0.695,-0.401c-0.457,0.005 0.263,0.672 -0.046,1.051c-0.477,-0.131 0.06,-0.625 -0.249,-0.822c-0.546,0.236 -1.384,-0.264 -1.636,0.714c-0.522,-0.73 -0.625,-0.27 -1.083,-0.393c-0.154,0.314 0.104,0.482 0.006,0.78c-0.621,-0.336 -0.998,-0.059 -1.413,0.119c0.069,0.465 0.466,0.16 0.606,0.169c-0.096,0.567 -0.732,0.421 -1.277,0.074c-0.152,0.359 0.266,0.51 0.117,0.871c0.337,0.309 0.507,-0.097 0.699,0.396c-0.832,0.346 -1.512,0.242 -2.51,-0.122c-0.239,0.478 0.51,0.595 0.346,1.045c-0.737,0.202 -1.511,0.321 -1.953,1.252c-0.654,-0.613 -0.651,0.099 -0.796,0.303c-0.226,-0.179 -0.091,-0.492 -0.414,-0.632c-0.211,0.946 -1.917,0.17 -1.562,1.252c-0.881,0.182 -1.761,1.306 -2.635,0.888c-0.155,0.803 -0.862,0.276 -0.93,1.285c-0.554,-0.533 -0.6,0.153 -1.189,-0.454c-0.145,0.325 0.112,0.485 0.021,0.786c-1.533,0.629 -3.19,0.965 -4.417,2.31c-0.126,-0.215 -0.322,-0.385 -0.278,-0.502c0.035,-0.029 0.07,-0.058 0.105,-0.087c-0.06,0.024 -0.092,0.053 -0.105,0.087c-1.066,0.886 -2.173,1.668 -3.598,1.717c-0.429,-0.16 -0.377,0.797 -0.72,0.836c-0.119,-0.127 -0.044,-0.339 -0.194,-0.451c-0.246,0.333 -0.554,0.734 -1.106,0.686c-0.014,-0.023 -0.027,-0.046 -0.038,-0.071c-0.103,-0.224 -0.05,-0.489 0.132,-0.656c2.153,-1.98 4.656,-5.144 6.057,-9.82c4.066,-13.567 -2.104,-18.097 7.891,-27.386c-21.891,-10.04 -19.249,7.525 -28.19,12.453c-5.519,3.041 -12.29,2.161 -15.992,-1.798c-3.225,-3.448 -4.226,-8.834 -2.473,-13.188c3.132,-7.776 9.415,-10.004 18.345,-11.718c0.023,0 0.046,-0.004 0.068,-0.013l0,0l0,0c0.009,-0.004 0.018,-0.009 0.027,-0.014l0.056,-0.007c2.031,-0.237 7.409,-1.649 11.163,-2.994c0.51,-0.183 0.601,-0.219 0.624,-0.231c0.181,0.954 -0.271,0.738 -0.367,0.965c0.376,0.32 0.34,-0.359 0.68,-0.124c0.01,-0.177 -0.179,-0.718 -0.313,-0.841l0,0Zm16.769,48.179c-0.221,-0.101 -0.656,-0.718 -0.604,-0.158c0.043,0.386 0.681,0.677 0.604,0.158Zm-4.521,-2.708c-0.35,-0.341 -0.49,-0.183 -0.627,-0.015c0.293,0.205 0.588,0.417 0.627,0.015Zm0.441,-1.358c0.02,-0.071 0.043,-0.111 0.063,-0.167c-0.029,0.051 -0.068,0.094 -0.101,0.142c0.014,0.01 0.024,0.011 0.038,0.025c0.103,0.223 -0.037,0.541 0.282,0.678c-0.039,0.279 -0.336,-0.061 -0.304,0.383c0.414,0.377 0.375,-0.335 0.853,0.193c-0.054,-0.749 0.301,-0.516 0.479,-0.712c-0.174,-0.583 -0.389,0.289 -0.739,-0.105c0.119,-0.923 -0.305,-0.219 -0.571,-0.437Zm9.889,0.574c0.241,0.499 0.699,0.32 0.784,-0.156c-0.487,-0.51 -0.664,-0.247 -0.784,0.156Zm-10.101,0.037c-0.003,-0.101 -0.064,-0.18 -0.143,-0.254c-0.092,0.085 -0.187,0.154 -0.284,0.219c0.037,0.052 0.082,0.101 0.161,0.136c0.129,0.061 0.115,-0.213 0.266,-0.101Zm13.754,-0.712c-0.469,0.178 -0.9,0.443 -1.367,0.623c0.533,0.11 1.337,-0.108 1.367,-0.623Zm-11.151,-1.609c-0.063,0.241 0.084,0.404 0.033,0.642c-0.144,-0.291 -0.263,-0.383 -0.455,-0.352c-0.194,0.338 0.13,0.476 0.148,0.733c-0.114,-0.089 -0.152,0.009 -0.249,-0.039c-0.177,-0.149 -0.036,-0.421 -0.3,-0.537c-0.089,0.16 -0.219,0.219 -0.307,0.381c0.487,0.211 0.597,0.483 1.063,0.508c0.04,-0.525 0.109,-0.982 0.574,-0.483c-0.048,-0.941 0.905,-0.428 0.585,-1.403c-0.249,0.462 -0.59,0.701 -1.092,0.55Zm0.828,1.255c0.017,-0.836 0.682,-0.096 0.842,-0.585c-0.402,-0.164 -0.666,0.012 -1.009,-0.007c0.231,0.225 -0.223,0.247 0.167,0.592Zm13.465,-1.018c0.393,0.28 0.558,-0.015 0.699,-0.369c-0.315,-0.083 -0.48,0.209 -0.699,0.369Zm-11.799,-0.008c0.121,-0.214 0.359,-0.135 0.63,0.025c0.03,-0.778 -0.428,-0.868 -0.557,-1.362c0.036,0.527 -0.402,-0.102 -0.422,0.29c0.113,0.519 0.5,0.12 0.546,0.581c-0.011,0.195 -0.458,0.219 -0.197,0.466Zm13.606,-1.457c-0.031,0.006 -0.062,0.009 -0.092,0.015c0.027,0.048 0.057,0.031 0.092,-0.015Zm0,0c0.118,-0.022 0.237,-0.046 0.357,-0.063c-0.166,-0.256 -0.277,-0.043 -0.357,0.063Zm-10.006,-0.535c0.548,0.377 0.286,-0.55 0.648,-0.887c-0.378,-0.342 -0.507,0.448 -0.836,-0.348c-0.232,0.518 0.454,0.704 0.188,1.235Zm12.807,-0.357c0.667,-0.452 1.568,-0.454 2.36,-1.046c-0.659,-0.465 -0.964,0.891 -1.539,-0.003c-0.078,0.599 -0.356,0.668 -0.728,0.501c0.064,0.344 -0.415,0.184 -0.093,0.548Zm-11.44,-1.053c-0.043,0.147 -0.203,0.01 -0.362,-0.13c0.084,0.655 -0.511,-0.37 -0.425,0.285c0.444,0.433 0.551,-0.346 0.699,0.396c-0.068,-0.342 0.413,-0.195 0.088,-0.551Zm5.14,-0.893c0.343,0.437 0.484,0.272 0.638,0.656c-0.04,0.604 -0.282,-0.23 -0.451,-0.36c-0.297,-0.2 0.114,0.361 -0.09,0.552c-0.627,-0.541 -0.928,-0.26 -1.175,0.151c-0.068,-0.089 -0.124,-0.182 -0.179,-0.276l-0.047,-0.081c-0.055,-0.094 -0.112,-0.187 -0.18,-0.276c0.436,0.25 1.117,0.149 1.467,-0.387l0.017,0.021Zm-3.538,0.447c-1.019,-1.19 -0.806,0.24 -1.467,0.399c0.644,0.384 0.786,-0.488 1.421,-0.123c-0.13,-0.136 -0.045,-0.209 0.046,-0.276Zm14.181,-0.58c-0.291,-0.223 -0.438,-0.074 -0.636,-0.055c0.182,0.475 0.569,0.467 0.636,0.055Zm-13.621,-0.534c0.145,0.656 -0.483,0.305 -0.224,0.602c0.174,-0.016 0.441,0.204 0.519,-0.056c-0.176,-0.152 -0.03,-0.421 -0.295,-0.546Zm0.59,0.314c0.409,0.456 0.499,-0.301 0.361,-0.649c-0.354,-0.325 -0.51,0.276 -0.361,0.649Zm-4.342,-0.782c-0.195,-0.462 -0.636,-0.446 -0.748,-0.118c0.24,0.569 0.568,0.278 0.748,0.118Zm6.651,-0.807c-0.263,0.012 -1.004,0.136 -0.523,0.829c0.068,-0.427 0.819,-0.132 0.523,-0.829Zm-4.504,0.164c-0.44,-0.386 -0.494,0.187 -0.701,0.38c0.395,0.276 0.56,-0.02 0.701,-0.38Zm9.281,0.395c0.102,-0.155 0.813,0.268 0.457,-0.412c-0.108,0.133 -0.761,-0.136 -0.457,0.412Zm-6.309,-2.875c-0.155,0.396 -0.61,0.035 -0.64,0.74c0.344,0.206 0.852,-0.19 0.64,-0.74Zm15.87,-0.746c-0.042,0.181 -0.005,0.342 0.033,0.501c-0.413,-0.22 -0.439,0.077 -0.67,-0.556c-0.033,0.528 -0.296,0.443 -0.492,0.537c0.476,0.179 0.919,-0.042 1.257,0.883c0.208,-0.278 0.372,-0.526 0.319,-0.994c0.177,0.061 0.547,0.641 0.585,0.33c-0.188,-0.232 0.075,-0.103 0.165,-0.178c-0.103,-0.267 -0.367,-0.485 -0.646,-0.694c-0.08,0.334 -0.264,0.39 -0.551,0.171Zm-13.894,0.448c-0.408,-0.384 -0.532,-0.035 -0.682,0.233c0.195,0.442 0.629,0.292 0.682,-0.233Zm14.831,-0.614c0.227,-0.079 0.657,0.382 0.776,0.015c-0.407,-0.408 -0.564,-0.137 -0.776,-0.015Zm-7.094,-3.645c-0.031,0.194 -0.108,0.26 -0.189,0.319c0.46,0.14 0.617,0.672 0.841,0.372c-0.144,-0.688 -0.262,0.038 -0.652,-0.691Zm0.212,-2.505c-0.525,-0.503 -0.534,0.124 -0.556,0.179c0.198,-0.025 0.527,0.294 0.556,-0.179Zm8.545,-4.172c0.073,-0.187 0.266,0.113 0.336,0.281c0.037,-0.182 0.075,-0.361 0.113,-0.543c-0.306,-0.453 -0.676,-0.036 -0.449,0.262Zm0.673,-0.709c0.354,0.527 0.796,0.221 0.563,-0.164c-0.035,0.473 -0.568,-0.418 -0.563,0.164Zm-1.012,-0.845c0.093,-0.194 0.141,0.152 0.338,0.283c-0.059,-0.797 0.565,0.264 0.505,-0.532c-0.465,-0.549 -0.985,-0.151 -0.843,0.249Zm-1.998,-1.821c0.343,0.292 0.6,0.354 0.76,0.157c-0.221,-0.576 -0.572,-0.308 -0.76,-0.157Zm-0.686,-2.043c-0.008,-0.016 -0.011,-0.033 -0.017,-0.051c0.013,0.004 0.028,0.01 0.046,0.02c0.03,-0.18 -0.086,-0.244 -0.008,-0.31c0.03,0.037 0.065,0.083 0.099,0.118c0.021,0.083 0.014,0.185 0.025,0.273c-0.036,0.001 -0.078,-0.005 -0.145,-0.05Zm-0.134,-0.048c-0.02,-0.013 -0.035,-0.017 -0.05,-0.021c0.017,-0.01 0.034,-0.019 0.052,-0.028c-0.001,0.016 0.001,0.031 -0.002,0.049Zm1.643,-0.888c-0.007,0.056 -0.012,0.121 -0.014,0.192c-0.039,-0.001 -0.078,-0.004 -0.113,-0.001c-0.001,-0.008 0.001,-0.012 -0.001,-0.022c-0.001,0.011 -0.006,0.014 -0.009,0.023c-0.066,0.006 -0.127,0.019 -0.175,0.038c-0.006,-0.067 -0.051,-0.096 -0.066,-0.154c0.148,-0.009 0.269,-0.038 0.378,-0.076Zm-5.701,-2.457c0.004,0.004 0.008,0.008 0.012,0.013c0.003,0.024 0.006,0.048 -0.002,0.082c-0.094,-0.06 -0.348,-0.331 -0.381,-0.215c-0.083,-0.111 -0.142,-0.301 -0.081,-0.352c0.143,0.346 0.222,0.212 0.375,0.149c0.015,0.081 -0.001,0.113 -0.042,0.111c0.024,0.089 0.115,0.118 0.131,0.213c-0.004,0 -0.007,0.001 -0.012,-0.001Zm-0.111,-0.72c0.015,0.284 -0.082,0.083 -0.256,0.026c-0.028,-0.2 0.171,-0.156 0.256,-0.026Zm6.472,-0.221c0.018,0.194 -0.289,0.046 -0.37,-0.072c0.065,-0.074 0.26,-0.086 0.37,0.072Zm-8.152,-3.637c-0.167,-0.111 -0.188,-0.01 -0.314,-0.062c-0.065,-0.23 0.066,-0.17 0.077,-0.287c0.072,0.125 0.229,0.167 0.237,0.349Zm0.974,-2.493c-0.015,0.18 -0.14,0.18 -0.263,0.18c-0.065,-0.315 0.162,-0.144 0.263,-0.18Zm-3.559,-0.091c0.029,0.315 -0.186,0.148 -0.211,0.141c0.062,-0.061 0.043,-0.259 0.211,-0.141Zm-1.598,0.155l0,0.004l0.008,0.001c-0.002,-0.004 -0.005,-0.008 -0.007,-0.012l-0.001,0.007Zm-0.052,-0.013c-0.114,-0.193 -0.183,-0.271 -0.217,-0.231c0.067,0.08 0.101,0.182 0.217,0.231Zm3.928,-1.7c-0.221,-0.025 0.041,-0.319 -0.299,-0.556c-0.354,0.22 -0.442,1.303 -0.994,0.863c0.023,-0.379 0.686,0.054 0.421,-0.421c-0.398,-0.011 -1.181,-0.188 -0.65,0.695c-0.442,-0.095 -0.842,-0.055 -1.219,0.056c0,0.12 -0.054,0.163 0.032,0.315c0.179,0.077 0.151,-0.198 0.316,-0.146c0.007,0.166 0.21,0.2 0.216,0.365c-0.059,0.073 -0.176,0.321 0.006,0.444c0.104,0.011 -0.018,-0.36 0.102,-0.323c0.022,0.269 0.317,0.102 0.268,0.33c0.127,-0.032 0.246,-0.264 -0.057,-0.408c0.113,0.324 -0.09,-0.048 -0.214,-0.111c-0.01,0.043 0,0.123 -0.052,0.096c0.011,-0.112 -0.061,-0.17 -0.056,-0.281c0.122,-0.082 0.174,0.209 0.375,0.262c0.015,-0.078 0.074,-0.082 0.05,-0.227c-0.101,-0.113 -0.177,0.096 -0.214,-0.111c0.251,-0.01 0.326,-0.316 0.633,-0.234c-0.151,0.253 -0.132,0.465 -0.308,0.719c0.053,0.028 0.064,0.084 0.107,0.118c0.193,-0.191 0.3,-0.527 0.522,-0.669c0.104,0.035 0.107,0.141 0.161,0.21c-0.001,-0.063 0.042,-0.053 0.053,-0.099c-0.004,-0.085 -0.096,-0.107 -0.11,-0.183c0.075,-0.096 0.216,-0.286 0.37,-0.059c0.113,-0.202 0.135,-0.88 0.414,-0.602c-0.044,0.054 -0.077,0.357 -0.2,0.714c0.218,-0.067 0.198,-0.532 0.522,-0.422c-0.15,-0.052 -0.15,-0.209 -0.195,-0.335Zm-2.855,0.673c-0.126,0.042 -0.249,0.091 -0.371,0.146c0.004,0.032 0.016,0.075 0.04,0.132c-0.074,-0.042 -0.117,-0.034 -0.159,-0.022c0.008,-0.022 0.014,-0.043 0.018,-0.064c-0.136,0.064 -0.269,0.133 -0.403,0.203c0.076,0.011 0.157,0.028 0.248,0.08c-0.104,0.111 -0.25,0.112 -0.332,0.281c0.233,0.261 0.846,0.074 0.789,-0.268c0.172,0.015 0.043,0.227 0.215,0.241c-0.001,-0.063 0.043,-0.052 0.051,-0.099c-0.095,-0.23 -0.095,-0.378 -0.323,-0.485c0.124,0.022 0.182,-0.064 0.264,-0.111c-0.013,-0.014 -0.025,-0.025 -0.037,-0.034Zm4.824,0.823c-0.006,-0.196 0.043,-0.299 0.153,-0.301c0.136,0.231 -0.051,0.278 -0.153,0.301Zm-0.077,-1.172c0.091,0.021 -0.013,-0.089 -0.004,-0.192c0.254,0.236 0.063,-0.263 0.317,-0.027c0.061,0.307 -0.215,0.375 -0.313,0.219Zm-0.436,-0.537c0.084,0.026 0.034,-0.121 -0.004,-0.19c0.072,0.037 0.143,0.072 0.215,0.109c0.071,0.226 -0.171,0.239 -0.211,0.081Zm0.424,-0.036c-0.083,-0.263 0.14,-0.331 0.208,-0.147c-0.17,-0.116 -0.012,0.306 -0.208,0.147Zm-36.959,-3.247c0.231,-0.032 0.397,-0.222 0.495,-0.576c-0.42,-0.542 -0.636,0.407 -0.495,0.576Zm0.516,-0.718c0.302,0.206 0.455,0.048 0.658,0.015c-0.289,-0.327 -0.272,-0.768 -0.606,-1.078c-0.177,0.415 0.082,0.665 -0.052,1.063Zm0.286,-0.889c0.481,0.03 0.643,0.519 1.031,0.921c-0.119,-0.612 0.157,-0.42 0.284,-0.89c-0.53,0.064 -1.415,-1.039 -1.315,-0.031Zm2.954,0.295c0.195,0.103 0.383,0.103 0.594,-0.174c-0.029,-0.126 -0.102,-0.199 -0.193,-0.252c-0.119,0.186 -0.246,0.349 -0.401,0.426Zm36.317,-1.727c-0.323,-0.31 -0.498,0.455 -0.402,0.769c0.227,-0.009 0.528,-0.344 0.402,-0.769Zm-16.292,0.337c-0.092,0.109 -0.186,0.207 -0.3,0.241c0.224,0.141 0.398,0.122 0.55,0.032c-0.051,-0.102 -0.15,-0.189 -0.25,-0.273Zm2.015,0.026c0.132,0.004 0.218,-0.14 0.298,-0.301c-0.05,-0.043 -0.093,-0.066 -0.136,-0.092c-0.106,0.036 -0.143,0.197 -0.162,0.393Zm-1.665,-0.354c0.082,0.136 0.164,0.208 0.245,0.245c0.045,-0.065 0.087,-0.129 0.129,-0.199c-0.151,-0.1 -0.269,-0.094 -0.374,-0.046Zm-0.225,0.184c0.074,-0.001 0.136,-0.028 0.162,-0.151c-0.057,0.039 -0.11,0.091 -0.162,0.151Zm-2.002,-0.134c0.118,0.034 0.233,0.043 0.339,0.013c-0.109,-0.094 -0.251,-0.108 -0.339,-0.013Zm-14.62,-0.087c0.076,-0.23 0.56,-0.462 0.293,-0.886c-0.228,-0.14 -0.542,0.514 -0.293,0.886Zm-0.519,-0.638c0.074,0.032 0.144,0.054 0.217,0.095c0.044,-0.124 0.023,-0.225 -0.003,-0.323c-0.058,0.113 -0.13,0.188 -0.214,0.228Zm18.706,-0.036c-0.002,0.002 -0.003,0.005 -0.006,0.007c0.003,-0.003 0.005,-0.005 0.007,-0.007l0.005,-0.006l-0.006,0.006Zm2.247,-0.725c-0.261,0.075 -0.44,0.427 -0.011,0.731c-0.078,-0.352 -0.03,-0.407 0.061,-0.387c-0.007,-0.113 -0.023,-0.228 -0.05,-0.344Zm-19.613,0.373c0.006,0.027 0.004,0.048 0.015,0.078c0.141,-0.041 0.28,-0.085 0.409,-0.158c-0.013,-0.017 -0.011,-0.03 -0.027,-0.049c-0.163,-0.082 -0.319,-0.011 -0.397,0.129Zm20.091,-0.049c-0.079,-0.255 -0.24,-0.338 -0.394,-0.335c0.08,0.126 0.076,0.265 0.087,0.4c0.113,0.048 0.236,0.091 0.307,-0.065Zm-22.113,-0.616c-0.357,-0.271 -0.35,0.547 -0.677,0.371c0.165,0.628 0.527,-0.165 0.677,-0.371Zm19.928,-0.27c-0.065,0.332 -0.107,0.537 -0.157,0.704c0.388,0.077 0.224,-0.476 0.701,-0.327c0.004,-0.23 -0.061,-0.249 -0.151,-0.244c-0.073,0.141 -0.182,0.169 -0.393,-0.133Zm-0.798,0.239c0.254,0.385 0.774,-0.204 0.311,-0.532c0.09,0.375 0.012,0.386 -0.304,0.046c0.026,0.157 0.052,0.315 -0.007,0.486Zm-14.603,0.037c0.153,-0.071 0.294,-0.174 0.383,-0.406c-0.061,-0.167 -0.154,-0.269 -0.255,-0.325c-0.007,0.164 0.112,0.308 0.141,0.47c-0.127,-0.024 -0.2,0.111 -0.269,0.261Zm18.556,-0.607c0.016,0.037 0.043,0.067 0.066,0.103c0.012,-0.029 0.023,-0.064 0.03,-0.111c0.367,0.204 0.316,0.504 0.547,0.46c-0.024,-0.108 -0.056,-0.236 -0.07,-0.349c-0.119,-0.157 -0.313,-0.289 -0.456,-0.437c-0.054,0.064 -0.101,0.148 -0.117,0.334Zm-0.108,0.309c-0.005,0.055 -0.019,0.088 -0.033,0.121c0.042,-0.017 0.084,-0.034 0.125,-0.054c-0.028,-0.021 -0.054,-0.047 -0.092,-0.067Zm-22.407,-0.393c-0.368,-0.239 -0.526,0.044 -0.804,0.029c0.427,0.383 0.707,0.406 0.804,-0.029Zm20.242,-0.076c0.001,0.002 0.002,0.004 0.003,0.006l0.003,0.004c0.001,0.002 0.003,0.004 0.004,0.007c0.006,-0.003 0.012,-0.003 0.017,-0.006c-0.009,-0.004 -0.017,-0.009 -0.028,-0.012l0.001,0.001Zm6.122,-1.211c-0.111,-0.067 -0.234,-0.151 -0.366,-0.249c-0.054,0.07 -0.105,0.144 -0.161,0.203c0.015,0.014 0.024,0.015 0.039,0.034c-0.02,-0.014 -0.034,-0.01 -0.054,-0.018c-0.105,0.112 -0.216,0.203 -0.32,0.262c0.112,0.107 0.1,0.23 0.182,0.339c0.23,-0.253 0.455,-0.428 0.68,-0.571Zm-20.176,0.286c0.276,-0.229 0.333,0.113 0.716,-0.243c-0.24,-0.327 -0.482,-0.568 -0.7,-0.539c0.326,0.452 -0.208,0.319 -0.261,-0.039c-0.085,0.33 0.098,0.57 0.245,0.821Zm2.791,-1.104c0.099,0.052 0.161,-0.015 0.21,-0.124c-0.057,0.075 -0.128,0.114 -0.21,0.124Zm1.361,-0.942c-0.133,-0.129 -0.083,-0.314 -0.035,-0.503c0.065,0.05 0.154,-0.01 0.027,-0.139c-0.152,0.164 -0.361,0.182 -0.486,0.42c0.18,0.11 0.421,0.383 0.494,0.222Z" style="fill:#90122a;"/></g></svg>