<?xml version="1.0" encoding="UTF-8" standalone="no"?><!DOCTYPE svg PUBLIC "-//W3C//DTD SVG 1.1//EN" "http://www.w3.org/Graphics/SVG/1.1/DTD/svg11.dtd"><svg width="100%" height="100%" viewBox="0 0 960 400" version="1.1" xmlns="http://www.w3.org/2000/svg" xmlns:xlink="http://www.w3.org/1999/xlink" xml:space="preserve" style="fill-rule:evenodd;clip-rule:evenodd;stroke-linejoin:round;stroke-miterlimit:1.41421;"><g><g><path d="M196.658,145.789c0,12.929 0.433,23.57 1.299,31.921c-8.599,-0.371 -23.106,-0.556 -43.521,-0.556c-29.632,0 -51.81,0.185 -66.534,0.556l0,-3.804c4.083,-0.186 7.037,-0.681 8.862,-1.485c1.825,-0.804 3.062,-2.289 3.712,-4.454c0.649,-2.165 0.974,-5.63 0.974,-10.393l0,-94.281c0,-4.763 -0.34,-8.227 -1.021,-10.393c-0.68,-2.165 -1.933,-3.65 -3.758,-4.454c-1.825,-0.804 -4.748,-1.299 -8.769,-1.485l0,-3.804c14.724,0.371 36.902,0.557 66.534,0.557c18.621,0 31.86,-0.186 39.717,-0.557c-0.866,11.878 -1.299,22.518 -1.299,31.921c0,5.878 0.185,10.455 0.556,13.734l-4.361,0c-2.227,-14.723 -6.449,-25.287 -12.667,-31.689c-6.217,-6.403 -13.656,-9.605 -22.317,-9.605l-2.505,0c-3.465,0 -5.97,0.279 -7.517,0.835c-1.546,0.557 -2.614,1.655 -3.201,3.295c-0.588,1.639 -0.882,4.253 -0.882,7.841l0,48.625l1.949,0c4.516,0 8.584,-1.269 12.203,-3.805c3.619,-2.536 6.603,-5.722 8.954,-9.558c2.351,-3.835 3.929,-7.733 4.733,-11.692l4.361,0c-0.495,7.424 -0.742,13.579 -0.742,18.466l0.093,8.537c0,5.444 0.402,14.446 1.206,27.004l-4.361,0c-0.805,-4.764 -2.398,-9.048 -4.779,-12.852c-2.382,-3.805 -5.429,-6.805 -9.141,-9.001c-3.711,-2.197 -7.887,-3.295 -12.527,-3.295l-1.949,0l0,49.46c0,3.65 0.294,6.279 0.882,7.888c0.587,1.608 1.655,2.691 3.201,3.248c1.547,0.557 4.052,0.835 7.517,0.835l6.31,0c4.578,0 9.171,-1.454 13.78,-4.361c4.609,-2.908 8.815,-7.718 12.62,-14.43c3.805,-6.712 6.666,-15.451 8.584,-26.215l4.361,0c-0.371,4.516 -0.557,10.331 -0.557,17.446Z" style="fill:#333;fill-rule:nonzero;"/><path d="M286.997,79.811c7.238,0 12.125,-0.247 14.661,-0.742l0,3.99c-2.598,0.99 -4.995,2.877 -7.191,5.66c-2.197,2.784 -4.284,7.053 -6.264,12.806l-25.704,76.185c-3.279,-0.309 -6.342,-0.464 -9.187,-0.464c-2.784,0 -5.877,0.155 -9.28,0.464l-33.035,-83.98c-2.784,-7.114 -6.465,-10.671 -11.043,-10.671l0,-3.99c10.146,0.742 21.436,1.113 33.871,1.113c6.31,0 14.538,-0.371 24.683,-1.113l0,3.99c-3.031,0 -5.304,0.108 -6.82,0.325c-1.516,0.216 -2.66,0.835 -3.434,1.856c-0.773,1.02 -0.912,2.706 -0.417,5.057l20.693,57.533l8.816,-26.168c2.412,-7.176 3.619,-13.672 3.619,-19.487c0,-5.939 -1.284,-10.533 -3.851,-13.78c-2.568,-3.248 -5.924,-5.027 -10.068,-5.336l0,-3.99c4.763,0.495 11.413,0.742 19.951,0.742Z" style="fill:#333;fill-rule:nonzero;"/><path d="M332.446,125.838c0,12.187 2.119,20.863 6.357,26.029c4.237,5.165 9.418,7.748 15.543,7.748c9.218,0 16.889,-4.237 23.013,-12.713l3.248,1.207c-1.794,5.629 -4.392,10.872 -7.795,15.728c-3.402,4.857 -7.795,8.831 -13.177,11.925c-5.382,3.093 -11.63,4.639 -18.744,4.639c-13.301,0 -23.957,-4.129 -31.968,-12.388c-8.012,-8.259 -12.017,-21.42 -12.017,-39.484c0,-11.754 2.103,-21.529 6.31,-29.324c4.206,-7.795 9.975,-13.548 17.306,-17.26c7.331,-3.711 15.76,-5.567 25.287,-5.567c23.941,0 35.912,14.197 35.912,42.593l-49.089,0c-0.124,1.484 -0.186,3.773 -0.186,6.867Zm19.348,-35.309c-1.577,-6.465 -4.037,-9.697 -7.377,-9.697c-3.465,0 -6.248,2.722 -8.352,8.166c-2.103,5.444 -3.464,14.228 -4.083,26.354l21.993,0c0.124,-10.084 -0.603,-18.358 -2.181,-24.823Z" style="fill:#333;fill-rule:nonzero;"/><path d="M454.383,76.378c6.187,0 10.641,1.902 13.363,5.707c2.722,3.804 4.083,8.305 4.083,13.501c0,5.692 -1.593,10.223 -4.779,13.595c-3.186,3.371 -7.408,5.057 -12.667,5.057c-5.506,0 -9.712,-1.222 -12.62,-3.665c-2.908,-2.444 -4.361,-5.769 -4.361,-9.976c0,-7.547 3.247,-13.455 9.743,-17.724c-2.289,0 -4.33,0.433 -6.124,1.299c-3.217,1.361 -5.893,3.604 -8.027,6.728c-2.134,3.124 -3.202,6.542 -3.202,10.254l0,56.976c0,4.022 0.557,7.161 1.671,9.419c1.113,2.258 2.845,3.851 5.196,4.779c2.351,0.928 5.506,1.392 9.465,1.392l0,3.99c-15.589,-0.495 -25.828,-0.742 -30.715,-0.742c-4.702,0 -14.847,0.247 -30.437,0.742l0,-3.99c2.66,0 4.764,-0.402 6.31,-1.206c1.547,-0.804 2.66,-2.196 3.341,-4.176c0.68,-1.98 1.021,-4.733 1.021,-8.259l0,-60.317c0,-5.877 -0.805,-10.13 -2.413,-12.759c-1.608,-2.629 -4.361,-3.944 -8.259,-3.944l0,-3.99c4.021,0.371 7.95,0.556 11.785,0.556c13.177,0 24.189,-0.866 33.035,-2.598l0,13.641c4.95,-9.527 13.146,-14.29 24.591,-14.29Z" style="fill:#333;fill-rule:nonzero;"/><path d="M564.465,79.811c7.177,0 12.033,-0.247 14.569,-0.742l0,3.99c-2.598,0.99 -4.995,2.877 -7.191,5.66c-2.196,2.784 -4.284,7.053 -6.264,12.806l-23.756,70.71l-7.98,22.921c-2.351,6.619 -5.135,11.197 -8.352,13.734c-3.897,3.031 -9.805,4.547 -17.724,4.547c-3.897,0 -7.825,-0.604 -11.785,-1.81c-3.959,-1.206 -7.284,-3.14 -9.975,-5.8c-2.691,-2.66 -4.037,-6.062 -4.037,-10.207c0,-4.454 1.686,-8.012 5.058,-10.672c3.371,-2.66 7.872,-3.99 13.501,-3.99c5.383,0 9.589,1.191 12.621,3.573c3.031,2.382 4.547,5.861 4.547,10.439c0,3.032 -1.052,5.908 -3.155,8.63c-2.104,2.722 -5.166,4.733 -9.187,6.032c1.237,0.247 3.371,0.371 6.403,0.371c8.722,0 14.754,-5.073 18.095,-15.218l1.021,-3.063l-44.357,-97.992c-1.917,-4.33 -3.789,-7.191 -5.614,-8.583c-1.825,-1.392 -3.634,-2.088 -5.428,-2.088l0,-3.99c10.083,0.742 20.415,1.113 30.993,1.113c8.228,0 17.415,-0.371 27.561,-1.113l0,3.99c-3.774,0 -6.62,0.247 -8.538,0.742c-1.917,0.495 -2.876,1.671 -2.876,3.526c0,0.928 0.247,1.918 0.742,2.97l23.477,55.677l7.888,-24.312c2.413,-7.176 3.619,-13.672 3.619,-19.487c0,-5.939 -1.284,-10.533 -3.851,-13.78c-2.567,-3.248 -5.923,-5.027 -10.068,-5.336l0,-3.99c4.763,0.495 11.444,0.742 20.043,0.742Z" style="fill:#333;fill-rule:nonzero;"/><path d="M659.31,88.673c8.475,8.197 12.713,21.482 12.713,39.856c0,18.311 -4.238,31.535 -12.713,39.67c-8.475,8.135 -20.508,12.202 -36.098,12.202c-15.651,0 -27.714,-4.067 -36.19,-12.202c-8.475,-8.135 -12.713,-21.359 -12.713,-39.67c0,-18.374 4.253,-31.659 12.76,-39.856c8.506,-8.197 20.554,-12.295 36.143,-12.295c15.59,0 27.623,4.098 36.098,12.295Zm-45.795,3.48c-2.443,7.98 -3.665,20.106 -3.665,36.376c0,16.208 1.222,28.271 3.665,36.19c2.444,7.918 5.676,11.878 9.697,11.878c4.022,0 7.239,-3.96 9.651,-11.878c2.413,-7.919 3.619,-19.982 3.619,-36.19c0,-16.27 -1.206,-28.396 -3.619,-36.376c-2.412,-7.981 -5.629,-11.971 -9.651,-11.971c-4.021,0 -7.253,3.99 -9.697,11.971Z" style="fill:#333;fill-rule:nonzero;"/><path d="M748.422,76.378c10.084,0 17.229,2.536 21.435,7.609c1.918,2.289 3.326,5.367 4.223,9.233c0.897,3.866 1.345,8.986 1.345,15.358l0,51.501c0,3.526 0.34,6.279 1.021,8.259c0.68,1.98 1.779,3.372 3.294,4.176c1.516,0.804 3.604,1.206 6.264,1.206l0,3.99c-13.61,-0.495 -22.457,-0.742 -26.54,-0.742c-4.392,0 -13.393,0.247 -27.003,0.742l0,-3.99c2.227,0 3.959,-0.402 5.196,-1.206c1.238,-0.804 2.135,-2.181 2.692,-4.13c0.556,-1.948 0.835,-4.717 0.835,-8.305l0,-61.802c0,-4.083 -0.743,-7.098 -2.227,-9.047c-1.485,-1.949 -3.836,-2.923 -7.053,-2.923c-2.351,0 -4.578,0.587 -6.681,1.763c-2.103,1.175 -3.805,2.799 -5.104,4.872c-1.299,2.072 -1.949,4.407 -1.949,7.006l0,60.131c0,3.526 0.279,6.279 0.836,8.259c0.556,1.98 1.469,3.372 2.737,4.176c1.268,0.804 3.016,1.206 5.243,1.206l0,3.99c-12.868,-0.495 -21.25,-0.742 -25.148,-0.742c-4.392,0 -13.888,0.247 -28.488,0.742l0,-3.99c2.66,0 4.764,-0.402 6.31,-1.206c1.547,-0.804 2.66,-2.196 3.341,-4.176c0.68,-1.98 1.021,-4.733 1.021,-8.259l0,-60.317c0,-5.877 -0.805,-10.13 -2.413,-12.759c-1.608,-2.629 -4.361,-3.944 -8.259,-3.944l0,-3.99c4.021,0.371 7.95,0.556 11.785,0.556c13.177,0 24.189,-0.866 33.035,-2.598l0,13.641c5.754,-9.527 15.838,-14.29 30.252,-14.29Z" style="fill:#333;fill-rule:nonzero;"/><path d="M822.824,125.838c0,12.187 2.118,20.863 6.356,26.029c4.238,5.165 9.419,7.748 15.543,7.748c9.218,0 16.889,-4.237 23.014,-12.713l3.247,1.207c-1.794,5.629 -4.392,10.872 -7.794,15.728c-3.403,4.857 -7.795,8.831 -13.177,11.925c-5.382,3.093 -11.631,4.639 -18.745,4.639c-13.301,0 -23.957,-4.129 -31.968,-12.388c-8.011,-8.259 -12.017,-21.42 -12.017,-39.484c0,-11.754 2.103,-21.529 6.31,-29.324c4.207,-7.795 9.976,-13.548 17.306,-17.26c7.331,-3.711 15.76,-5.567 25.287,-5.567c23.941,0 35.912,14.197 35.912,42.593l-49.089,0c-0.124,1.484 -0.185,3.773 -0.185,6.867Zm19.347,-35.309c-1.577,-6.465 -4.036,-9.697 -7.377,-9.697c-3.464,0 -6.248,2.722 -8.351,8.166c-2.104,5.444 -3.465,14.228 -4.083,26.354l21.992,0c0.124,-10.084 -0.603,-18.358 -2.181,-24.823Z" style="fill:#333;fill-rule:nonzero;"/></g><g><path d="M99.637,245.307c10.084,0 17.229,2.536 21.436,7.609c1.917,2.289 3.325,5.367 4.222,9.233c0.897,3.867 1.345,8.986 1.345,15.358l0,51.501c0,3.526 0.341,6.279 1.021,8.259c0.681,1.98 1.779,3.372 3.294,4.176c1.516,0.804 3.604,1.206 6.264,1.206l0,3.99c-13.61,-0.495 -22.456,-0.742 -26.539,-0.742c-4.393,0 -13.394,0.247 -27.004,0.742l0,-3.99c2.227,0 3.959,-0.402 5.197,-1.206c1.237,-0.804 2.134,-2.196 2.691,-4.176c0.556,-1.98 0.835,-4.733 0.835,-8.259l0,-61.802c0,-4.083 -0.743,-7.098 -2.227,-9.047c-1.485,-1.949 -3.836,-2.923 -7.053,-2.923c-2.351,0 -4.578,0.587 -6.681,1.763c-2.103,1.175 -3.805,2.799 -5.104,4.872c-1.299,2.072 -1.948,4.407 -1.948,7.006l0,60.131c0,3.526 0.278,6.279 0.835,8.259c0.556,1.98 1.454,3.372 2.691,4.176c1.237,0.804 2.969,1.206 5.196,1.206l0,3.99c-12.62,-0.495 -20.971,-0.742 -25.054,-0.742c-4.393,0 -13.889,0.247 -28.489,0.742l0,-3.99c2.66,0 4.764,-0.402 6.31,-1.206c1.547,-0.804 2.661,-2.196 3.341,-4.176c0.681,-1.98 1.021,-4.733 1.021,-8.259l0,-108.199c0,-5.877 -0.804,-10.131 -2.413,-12.76c-1.608,-2.629 -4.361,-3.944 -8.259,-3.944l0,-3.99c3.96,0.371 7.888,0.557 11.785,0.557c13.301,0 24.313,-0.897 33.036,-2.691l0,61.616c5.753,-9.527 15.837,-14.29 30.251,-14.29Z" style="fill:#333;fill-rule:nonzero;"/><path d="M187.286,253.89c-2.011,-3.186 -5.707,-4.779 -11.089,-4.779c-1.609,0 -3.325,0.31 -5.15,0.928c-1.825,0.619 -3.449,1.392 -4.872,2.32c8.475,3.155 12.713,8.878 12.713,17.167c0,2.97 -0.758,5.661 -2.274,8.073c-1.515,2.413 -3.665,4.331 -6.449,5.754c-2.784,1.423 -5.97,2.134 -9.558,2.134c-3.093,0 -5.815,-0.727 -8.166,-2.181c-2.351,-1.453 -4.176,-3.448 -5.475,-5.985c-1.299,-2.536 -1.948,-5.351 -1.948,-8.444c0,-3.836 1.067,-7.223 3.201,-10.161c2.134,-2.939 4.996,-5.367 8.584,-7.285c7.98,-4.083 18.126,-6.124 30.437,-6.124c7.238,0 13.362,0.696 18.373,2.088c5.011,1.391 9.218,3.881 12.62,7.47c2.475,2.598 4.13,5.892 4.965,9.882c0.835,3.991 1.253,9.574 1.253,16.75l0,50.852c0,3.031 0.216,5.15 0.649,6.356c0.433,1.207 1.175,1.81 2.227,1.81c0.99,0 1.902,-0.232 2.738,-0.696c0.835,-0.464 1.902,-1.16 3.201,-2.088l1.856,3.248c-2.969,2.474 -6.434,4.253 -10.393,5.336c-3.959,1.082 -8.723,1.623 -14.291,1.623c-6.681,0 -11.584,-1.345 -14.708,-4.036c-3.124,-2.691 -4.748,-6.14 -4.871,-10.347c-2.661,4.392 -6.403,7.888 -11.229,10.486c-4.825,2.598 -10.145,3.897 -15.961,3.897c-7.485,0 -13.347,-1.979 -17.584,-5.938c-4.238,-3.96 -6.357,-9.249 -6.357,-15.868c0,-6.496 1.949,-11.909 5.846,-16.24c3.898,-4.33 9.991,-7.856 18.281,-10.578c6.743,-2.413 11.739,-4.315 14.987,-5.707c3.247,-1.392 5.969,-3.063 8.166,-5.011c2.196,-1.949 3.294,-4.253 3.294,-6.914l0,-16.981c0,-4.021 -1.006,-7.625 -3.016,-10.811Zm-4.408,43.939c-6.186,6.001 -9.279,13.146 -9.279,21.436c0,8.97 3.217,13.455 9.65,13.455c2.66,0 5.011,-1.052 7.053,-3.155l0,-40.088c-0.928,1.547 -3.403,4.331 -7.424,8.352Z" style="fill:#333;fill-rule:nonzero;"/><path d="M249.091,327.987c2.197,5.197 5.042,9.249 8.538,12.157c3.495,2.907 7.501,4.361 12.017,4.361c3.217,0 5.861,-0.882 7.934,-2.645c2.072,-1.763 3.108,-4.346 3.108,-7.748c0,-3.526 -0.727,-6.697 -2.18,-9.512c-1.454,-2.814 -3.233,-5.32 -5.336,-7.516c-2.104,-2.196 -5.475,-5.398 -10.115,-9.604c-5.382,-4.949 -9.45,-8.878 -12.202,-11.785c-2.753,-2.908 -5.12,-6.295 -7.099,-10.162c-1.98,-3.866 -2.97,-8.15 -2.97,-12.852c0,-5.444 1.64,-10.238 4.918,-14.383c3.279,-4.145 7.641,-7.346 13.085,-9.604c5.444,-2.258 11.352,-3.387 17.723,-3.387c5.011,0 9.667,0.541 13.966,1.624c4.3,1.082 7.625,2.273 9.976,3.572c1.299,0.743 2.443,1.114 3.433,1.114c2.537,0 4.114,-2.042 4.733,-6.125l3.804,0c-0.495,6.62 -0.742,18.033 -0.742,34.242l-3.805,0c-0.989,-8.29 -3.356,-15.327 -7.098,-21.111c-3.743,-5.784 -9.172,-8.677 -16.286,-8.677c-3.217,0 -5.893,0.959 -8.027,2.877c-2.134,1.918 -3.201,4.485 -3.201,7.702c0,4.269 1.423,8.027 4.268,11.275c2.846,3.248 6.202,6.372 10.069,9.372c3.866,3 6.696,5.243 8.49,6.728c4.702,3.897 8.445,7.269 11.229,10.114c2.783,2.846 5.026,6.079 6.727,9.698c1.702,3.619 2.552,7.717 2.552,12.295c0,5.63 -1.717,10.687 -5.15,15.172c-3.433,4.485 -8.073,7.965 -13.919,10.44c-5.846,2.474 -12.265,3.711 -19.255,3.711c-7.919,0 -14.446,-1.608 -19.58,-4.825c-4.083,-2.103 -7.269,-3.155 -9.558,-3.155c-2.413,0 -4.176,2.196 -5.29,6.588l-3.804,0c0.495,-7.238 0.742,-19.889 0.742,-37.953l3.805,0c0.804,6.805 2.304,12.806 4.5,18.002Z" style="fill:#333;fill-rule:nonzero;"/><path d="M408.893,253.89c-2.011,-3.186 -5.707,-4.779 -11.089,-4.779c-1.609,0 -3.326,0.31 -5.151,0.928c-1.825,0.619 -3.448,1.392 -4.871,2.32c8.475,3.155 12.713,8.878 12.713,17.167c0,2.97 -0.758,5.661 -2.274,8.073c-1.515,2.413 -3.665,4.331 -6.449,5.754c-2.784,1.423 -5.97,2.134 -9.558,2.134c-3.093,0 -5.815,-0.727 -8.166,-2.181c-2.351,-1.453 -4.176,-3.448 -5.475,-5.985c-1.299,-2.536 -1.949,-5.351 -1.949,-8.444c0,-3.836 1.067,-7.223 3.202,-10.161c2.134,-2.939 4.995,-5.367 8.583,-7.285c7.981,-4.083 18.126,-6.124 30.437,-6.124c7.238,0 13.363,0.696 18.374,2.088c5.011,1.391 9.217,3.881 12.62,7.47c2.475,2.598 4.129,5.892 4.965,9.882c0.835,3.991 1.252,9.574 1.252,16.75l0,50.852c0,3.031 0.217,5.15 0.65,6.356c0.433,1.207 1.175,1.81 2.227,1.81c0.99,0 1.902,-0.232 2.737,-0.696c0.836,-0.464 1.903,-1.16 3.202,-2.088l1.856,3.248c-2.97,2.474 -6.434,4.253 -10.393,5.336c-3.96,1.082 -8.723,1.623 -14.291,1.623c-6.681,0 -11.584,-1.345 -14.708,-4.036c-3.124,-2.691 -4.748,-6.14 -4.872,-10.347c-2.66,4.392 -6.403,7.888 -11.228,10.486c-4.825,2.598 -10.146,3.897 -15.961,3.897c-7.485,0 -13.347,-1.979 -17.585,-5.938c-4.237,-3.96 -6.356,-9.249 -6.356,-15.868c0,-6.496 1.949,-11.909 5.846,-16.24c3.898,-4.33 9.991,-7.856 18.281,-10.578c6.743,-2.413 11.738,-4.315 14.986,-5.707c3.248,-1.392 5.97,-3.063 8.166,-5.011c2.196,-1.949 3.295,-4.253 3.295,-6.914l0,-16.981c0,-4.021 -1.006,-7.625 -3.016,-10.811Zm-4.408,43.939c-6.186,6.001 -9.28,13.146 -9.28,21.436c0,8.97 3.217,13.455 9.651,13.455c2.66,0 5.011,-1.052 7.053,-3.155l0,-40.088c-0.928,1.547 -3.403,4.331 -7.424,8.352Z" style="fill:#333;fill-rule:nonzero;"/><path d="M509.305,327.987c2.196,5.197 5.042,9.249 8.537,12.157c3.495,2.907 7.501,4.361 12.017,4.361c3.217,0 5.862,-0.882 7.934,-2.645c2.072,-1.763 3.109,-4.346 3.109,-7.748c0,-3.526 -0.727,-6.697 -2.181,-9.512c-1.454,-2.814 -3.232,-5.32 -5.336,-7.516c-2.103,-2.196 -5.475,-5.398 -10.114,-9.604c-5.383,-4.949 -9.45,-8.878 -12.203,-11.785c-2.753,-2.908 -5.119,-6.295 -7.099,-10.162c-1.98,-3.866 -2.969,-8.15 -2.969,-12.852c0,-5.444 1.639,-10.238 4.918,-14.383c3.279,-4.145 7.64,-7.346 13.084,-9.604c5.444,-2.258 11.352,-3.387 17.724,-3.387c5.011,0 9.666,0.541 13.966,1.624c4.299,1.082 7.624,2.273 9.975,3.572c1.299,0.743 2.444,1.114 3.434,1.114c2.536,0 4.113,-2.042 4.732,-6.125l3.805,0c-0.495,6.62 -0.743,18.033 -0.743,34.242l-3.804,0c-0.99,-8.29 -3.356,-15.327 -7.099,-21.111c-3.743,-5.784 -9.171,-8.677 -16.286,-8.677c-3.217,0 -5.892,0.959 -8.027,2.877c-2.134,1.918 -3.201,4.485 -3.201,7.702c0,4.269 1.423,8.027 4.269,11.275c2.845,3.248 6.201,6.372 10.068,9.372c3.866,3 6.697,5.243 8.491,6.728c4.701,3.897 8.444,7.269 11.228,10.114c2.784,2.846 5.026,6.079 6.728,9.698c1.701,3.619 2.552,7.717 2.552,12.295c0,5.63 -1.717,10.687 -5.151,15.172c-3.433,4.485 -8.073,7.965 -13.919,10.44c-5.846,2.474 -12.264,3.711 -19.255,3.711c-7.919,0 -14.445,-1.608 -19.58,-4.825c-4.083,-2.103 -7.269,-3.155 -9.558,-3.155c-2.412,0 -4.176,2.196 -5.289,6.588l-3.805,0c0.495,-7.238 0.743,-19.889 0.743,-37.953l3.804,0c0.804,6.805 2.305,12.806 4.501,18.002Z" style="fill:#333;fill-rule:nonzero;"/><path d="M645.393,248.183l0,3.805l-18.652,0l0,78.69c0,2.475 0.433,4.238 1.299,5.29c0.866,1.052 2.351,1.577 4.455,1.577c1.546,0 3.247,-0.448 5.103,-1.345c1.856,-0.897 3.557,-2.305 5.104,-4.222l2.877,2.32c-5.815,10.021 -14.817,15.032 -27.004,15.032c-8.723,0 -15.249,-2.165 -19.58,-6.495c-2.598,-2.599 -4.33,-5.877 -5.196,-9.837c-0.866,-3.959 -1.299,-9.496 -1.299,-16.61l0,-64.4l-14.384,0l0,-3.805l14.384,0l0,-22.642c6.867,0 13.053,-0.665 18.559,-1.995c5.506,-1.33 10.733,-3.449 15.682,-6.356l0,30.993l18.652,0Z" style="fill:#333;fill-rule:nonzero;"/><path d="M731.233,257.602c8.475,8.197 12.713,21.482 12.713,39.856c0,18.311 -4.238,31.535 -12.713,39.67c-8.476,8.135 -20.508,12.202 -36.098,12.202c-15.651,0 -27.715,-4.067 -36.19,-12.202c-8.475,-8.135 -12.713,-21.359 -12.713,-39.67c0,-18.374 4.253,-31.659 12.759,-39.856c8.507,-8.197 20.555,-12.295 36.144,-12.295c15.59,0 27.622,4.098 36.098,12.295Zm-45.795,3.48c-2.444,7.98 -3.665,20.106 -3.665,36.376c0,16.208 1.221,28.271 3.665,36.19c2.444,7.918 5.676,11.878 9.697,11.878c4.021,0 7.238,-3.96 9.651,-11.878c2.413,-7.919 3.619,-19.982 3.619,-36.19c0,-16.27 -1.206,-28.396 -3.619,-36.376c-2.413,-7.981 -5.63,-11.971 -9.651,-11.971c-4.021,0 -7.253,3.99 -9.697,11.971Z" style="fill:#333;fill-rule:nonzero;"/><path d="M813.783,245.307c6.187,0 10.641,1.902 13.363,5.707c2.722,3.804 4.083,8.305 4.083,13.501c0,5.692 -1.593,10.223 -4.779,13.595c-3.186,3.371 -7.408,5.057 -12.667,5.057c-5.505,0 -9.712,-1.222 -12.62,-3.665c-2.907,-2.444 -4.361,-5.769 -4.361,-9.976c0,-7.547 3.248,-13.455 9.743,-17.724c-2.289,0 -4.33,0.433 -6.124,1.299c-3.217,1.361 -5.893,3.604 -8.027,6.728c-2.134,3.124 -3.201,6.542 -3.201,10.254l0,56.976c0,4.022 0.556,7.161 1.67,9.419c1.114,2.258 2.846,3.851 5.197,4.779c2.35,0.928 5.505,1.392 9.465,1.392l0,3.99c-15.59,-0.495 -25.828,-0.742 -30.716,-0.742c-4.701,0 -14.847,0.247 -30.437,0.742l0,-3.99c2.661,0 4.764,-0.402 6.311,-1.206c1.546,-0.804 2.66,-2.196 3.34,-4.176c0.681,-1.98 1.021,-4.733 1.021,-8.259l0,-60.317c0,-5.877 -0.804,-10.13 -2.413,-12.759c-1.608,-2.629 -4.361,-3.944 -8.259,-3.944l0,-3.99c4.022,0.371 7.95,0.556 11.786,0.556c13.176,0 24.188,-0.866 33.035,-2.598l0,13.641c4.949,-9.527 13.146,-14.29 24.59,-14.29Z" style="fill:#333;fill-rule:nonzero;"/><path d="M920.866,248.74c7.176,0 12.032,-0.247 14.569,-0.742l0,3.99c-2.599,0.99 -4.996,2.877 -7.192,5.66c-2.196,2.784 -4.284,7.053 -6.264,12.806l-23.755,70.71l-7.981,22.921c-2.351,6.619 -5.134,11.197 -8.351,13.734c-3.898,3.031 -9.806,4.547 -17.724,4.547c-3.898,0 -7.826,-0.604 -11.785,-1.81c-3.96,-1.206 -7.285,-3.14 -9.976,-5.8c-2.691,-2.66 -4.036,-6.062 -4.036,-10.207c0,-4.454 1.685,-8.011 5.057,-10.672c3.372,-2.66 7.872,-3.99 13.502,-3.99c5.382,0 9.589,1.191 12.62,3.573c3.031,2.382 4.547,5.861 4.547,10.439c0,3.032 -1.052,5.908 -3.155,8.63c-2.104,2.722 -5.166,4.733 -9.187,6.032c1.237,0.247 3.372,0.371 6.403,0.371c8.723,0 14.754,-5.073 18.095,-15.218l1.021,-3.063l-44.356,-97.992c-1.918,-4.33 -3.79,-7.191 -5.615,-8.583c-1.825,-1.392 -3.634,-2.088 -5.428,-2.088l0,-3.99c10.084,0.742 20.415,1.113 30.994,1.113c8.227,0 17.414,-0.371 27.56,-1.113l0,3.99c-3.774,0 -6.62,0.247 -8.537,0.742c-1.918,0.495 -2.877,1.671 -2.877,3.527c0,0.927 0.247,1.917 0.742,2.969l23.478,55.677l7.887,-24.312c2.413,-7.176 3.619,-13.672 3.619,-19.487c0,-5.939 -1.283,-10.532 -3.851,-13.78c-2.567,-3.248 -5.923,-5.027 -10.068,-5.336l0,-3.99c4.763,0.495 11.445,0.742 20.044,0.742Z" style="fill:#333;fill-rule:nonzero;"/></g></g></svg>