<?xml version="1.0" encoding="UTF-8" standalone="no"?><!DOCTYPE svg PUBLIC "-//W3C//DTD SVG 1.1//EN" "http://www.w3.org/Graphics/SVG/1.1/DTD/svg11.dtd"><svg width="100%" height="100%" viewBox="0 0 960 400" version="1.1" xmlns="http://www.w3.org/2000/svg" xmlns:xlink="http://www.w3.org/1999/xlink" xml:space="preserve" style="fill-rule:evenodd;clip-rule:evenodd;stroke-linejoin:round;stroke-miterlimit:1.41421;"><g><g><g><path d="M107.76,62.35c-1.633,0.719 -2.739,2.048 -3.321,3.984c-0.581,1.937 -0.871,5.036 -0.871,9.297l0,62.256l0.083,13.945c0,13.946 -0.996,24.073 -2.988,30.381c-1.716,5.313 -4.746,10.058 -9.09,14.236c-4.344,4.178 -9.822,7.471 -16.435,9.878c-6.613,2.407 -14.015,3.611 -22.205,3.611c-8.301,0 -14.637,-1.079 -19.009,-3.237c-5.7,-2.823 -8.549,-7.056 -8.549,-12.701c0,-3.984 1.521,-7.166 4.565,-9.545c3.044,-2.38 7.083,-3.57 12.119,-3.57c4.759,0 8.495,1.065 11.206,3.196c2.712,2.131 4.068,5.243 4.068,9.338c0,2.657 -0.817,5.147 -2.449,7.471c-1.633,2.324 -4.109,4.095 -7.429,5.313c0.719,0.11 1.743,0.166 3.071,0.166c3.597,0 6.696,-1.01 9.297,-3.03c2.601,-2.02 4.51,-4.579 5.727,-7.678c1.162,-3.21 1.992,-6.53 2.491,-9.961c0.498,-3.431 0.802,-7.347 0.913,-11.746c0.11,-4.399 0.166,-11.275 0.166,-20.627l0,-77.696c0,-4.261 -0.305,-7.36 -0.913,-9.297c-0.609,-1.936 -1.73,-3.265 -3.362,-3.984c-1.633,-0.719 -4.248,-1.162 -7.845,-1.328l0,-3.403c6.143,0.332 15.661,0.498 28.555,0.498c13.115,0 23.159,-0.166 30.132,-0.498l0,3.403c-3.652,0.166 -6.295,0.609 -7.927,1.328Z" style="fill:#333;fill-rule:nonzero;"/><path d="M146.158,131.579c0,10.901 1.895,18.662 5.686,23.283c3.79,4.621 8.425,6.931 13.903,6.931c8.246,0 15.108,-3.79 20.586,-11.372l2.906,1.079c-1.605,5.036 -3.929,9.726 -6.973,14.07c-3.044,4.344 -6.973,7.9 -11.787,10.667c-4.815,2.767 -10.404,4.15 -16.768,4.15c-11.898,0 -21.43,-3.694 -28.596,-11.081c-7.166,-7.388 -10.749,-19.161 -10.749,-35.32c0,-10.515 1.881,-19.258 5.644,-26.231c3.763,-6.972 8.923,-12.119 15.481,-15.439c6.558,-3.32 14.098,-4.981 22.62,-4.981c21.416,0 32.124,12.701 32.124,38.101l-43.911,0c-0.111,1.328 -0.166,3.376 -0.166,6.143Zm17.307,-31.585c-1.411,-5.783 -3.611,-8.674 -6.599,-8.674c-3.099,0 -5.59,2.435 -7.471,7.304c-1.882,4.87 -3.099,12.728 -3.653,23.575l19.673,0c0.111,-9.021 -0.539,-16.422 -1.95,-22.205Z" style="fill:#333;fill-rule:nonzero;"/><path d="M207.668,161.295c1.964,4.649 4.51,8.273 7.637,10.874c3.126,2.601 6.709,3.902 10.749,3.902c2.878,0 5.244,-0.789 7.097,-2.366c1.854,-1.577 2.781,-3.888 2.781,-6.931c0,-3.154 -0.65,-5.991 -1.951,-8.508c-1.3,-2.518 -2.891,-4.76 -4.773,-6.724c-1.881,-1.965 -4.897,-4.828 -9.047,-8.591c-4.815,-4.427 -8.453,-7.941 -10.916,-10.542c-2.462,-2.601 -4.579,-5.631 -6.35,-9.09c-1.771,-3.458 -2.656,-7.291 -2.656,-11.496c0,-4.87 1.466,-9.159 4.399,-12.867c2.933,-3.707 6.834,-6.571 11.704,-8.591c4.87,-2.02 10.155,-3.03 15.855,-3.03c4.482,0 8.646,0.485 12.492,1.453c3.846,0.968 6.821,2.034 8.924,3.196c1.162,0.664 2.186,0.996 3.071,0.996c2.269,0 3.68,-1.826 4.233,-5.479l3.404,0c-0.443,5.922 -0.664,16.132 -0.664,30.63l-3.404,0c-0.885,-7.415 -3.002,-13.71 -6.35,-18.884c-3.348,-5.174 -8.204,-7.761 -14.568,-7.761c-2.877,0 -5.271,0.858 -7.18,2.573c-1.909,1.716 -2.863,4.012 -2.863,6.89c0,3.818 1.272,7.18 3.818,10.085c2.545,2.905 5.548,5.7 9.006,8.384c3.459,2.684 5.991,4.69 7.595,6.018c4.206,3.486 7.554,6.502 10.044,9.048c2.491,2.545 4.497,5.437 6.018,8.674c1.522,3.237 2.283,6.904 2.283,10.999c0,5.035 -1.535,9.559 -4.607,13.571c-3.071,4.012 -7.221,7.125 -12.451,9.339c-5.229,2.213 -10.971,3.32 -17.224,3.32c-7.083,0 -12.922,-1.439 -17.515,-4.316c-3.652,-1.882 -6.502,-2.823 -8.55,-2.823c-2.158,0 -3.735,1.965 -4.731,5.894l-3.403,0c0.442,-6.475 0.664,-17.791 0.664,-33.95l3.403,0c0.719,6.087 2.061,11.455 4.026,16.103Z" style="fill:#333;fill-rule:nonzero;"/><path d="M366.796,170.883c1.438,2.352 3.901,3.528 7.387,3.528l0,3.569c-3.541,-0.332 -7.055,-0.498 -10.542,-0.498c-11.897,0 -21.748,0.802 -29.55,2.407l0,-12.285c-5.147,8.522 -14.167,12.783 -27.061,12.783c-9.02,0 -15.412,-2.269 -19.175,-6.807c-1.715,-2.047 -2.974,-4.786 -3.777,-8.217c-0.802,-3.431 -1.203,-7.997 -1.203,-13.697l0,-43.413c0,-5.257 -0.706,-9.061 -2.117,-11.413c-1.411,-2.352 -3.86,-3.528 -7.346,-3.528l0,-3.569c3.541,0.332 7.055,0.498 10.542,0.498c11.732,0 21.582,-0.775 29.551,-2.325l0,72.881c0,3.653 0.664,6.35 1.992,8.094c1.328,1.743 3.431,2.614 6.308,2.614c2.103,0 4.095,-0.525 5.977,-1.577c1.881,-1.051 3.403,-2.504 4.565,-4.358c1.162,-1.854 1.744,-3.943 1.744,-6.267l0,-51.05c0,-5.257 -0.72,-9.061 -2.159,-11.413c-1.438,-2.352 -3.901,-3.528 -7.387,-3.528l0,-3.569c3.541,0.332 7.055,0.498 10.542,0.498c11.787,0 21.637,-0.775 29.55,-2.325l0,71.553c0,5.257 0.72,9.062 2.159,11.414Z" style="fill:#333;fill-rule:nonzero;"/><path d="M390.288,161.295c1.965,4.649 4.511,8.273 7.637,10.874c3.127,2.601 6.71,3.902 10.75,3.902c2.877,0 5.243,-0.789 7.097,-2.366c1.854,-1.577 2.781,-3.888 2.781,-6.931c0,-3.154 -0.651,-5.991 -1.951,-8.508c-1.301,-2.518 -2.891,-4.76 -4.773,-6.724c-1.882,-1.965 -4.897,-4.828 -9.048,-8.591c-4.814,-4.427 -8.453,-7.941 -10.915,-10.542c-2.463,-2.601 -4.58,-5.631 -6.35,-9.09c-1.771,-3.458 -2.657,-7.291 -2.657,-11.496c0,-4.87 1.467,-9.159 4.4,-12.867c2.933,-3.707 6.834,-6.571 11.704,-8.591c4.87,-2.02 10.154,-3.03 15.854,-3.03c4.483,0 8.647,0.485 12.493,1.453c3.846,0.968 6.82,2.034 8.923,3.196c1.162,0.664 2.186,0.996 3.072,0.996c2.268,0 3.68,-1.826 4.233,-5.479l3.403,0c-0.442,5.922 -0.664,16.132 -0.664,30.63l-3.403,0c-0.885,-7.415 -3.002,-13.71 -6.35,-18.884c-3.348,-5.174 -8.204,-7.761 -14.568,-7.761c-2.878,0 -5.271,0.858 -7.18,2.573c-1.909,1.716 -2.864,4.012 -2.864,6.89c0,3.818 1.273,7.18 3.818,10.085c2.546,2.905 5.548,5.7 9.007,8.384c3.458,2.684 5.99,4.69 7.595,6.018c4.206,3.486 7.554,6.502 10.044,9.048c2.49,2.545 4.496,5.437 6.018,8.674c1.522,3.237 2.283,6.904 2.283,10.999c0,5.035 -1.536,9.559 -4.607,13.571c-3.072,4.012 -7.222,7.125 -12.451,9.339c-5.23,2.213 -10.971,3.32 -17.225,3.32c-7.083,0 -12.921,-1.439 -17.514,-4.316c-3.653,-1.882 -6.502,-2.823 -8.55,-2.823c-2.158,0 -3.735,1.965 -4.731,5.894l-3.404,0c0.443,-6.475 0.664,-17.791 0.664,-33.95l3.404,0c0.719,6.087 2.061,11.455 4.025,16.103Z" style="fill:#333;fill-rule:nonzero;"/><path d="M531.035,169.596c0.609,1.771 1.605,3.016 2.988,3.735c1.384,0.72 3.265,1.08 5.645,1.08l0,3.569c-12.175,-0.443 -20.227,-0.664 -24.156,-0.664c-3.929,0 -12.423,0.221 -25.483,0.664l0,-3.569c2.38,0 4.261,-0.36 5.645,-1.08c1.383,-0.719 2.379,-1.964 2.988,-3.735c0.609,-1.771 0.913,-4.233 0.913,-7.388l0,-96.787c0,-5.257 -0.719,-9.061 -2.158,-11.413c-1.439,-2.352 -3.902,-3.528 -7.388,-3.528l0,-3.569c3.542,0.332 7.056,0.498 10.542,0.498c11.898,0 21.748,-0.803 29.551,-2.408l0,117.207c0,3.155 0.304,5.617 0.913,7.388Z" style="fill:#333;fill-rule:nonzero;"/><path d="M574.7,131.579c0,10.901 1.896,18.662 5.686,23.283c3.791,4.621 8.426,6.931 13.904,6.931c8.246,0 15.108,-3.79 20.586,-11.372l2.905,1.079c-1.604,5.036 -3.929,9.726 -6.972,14.07c-3.044,4.344 -6.973,7.9 -11.787,10.667c-4.815,2.767 -10.404,4.15 -16.768,4.15c-11.898,0 -21.43,-3.694 -28.596,-11.081c-7.167,-7.388 -10.75,-19.161 -10.75,-35.32c0,-10.515 1.882,-19.258 5.645,-26.231c3.763,-6.972 8.923,-12.119 15.481,-15.439c6.557,-3.32 14.097,-4.981 22.619,-4.981c21.416,0 32.124,12.701 32.124,38.101l-43.911,0c-0.11,1.328 -0.166,3.376 -0.166,6.143Zm17.307,-31.585c-1.411,-5.783 -3.61,-8.674 -6.599,-8.674c-3.099,0 -5.589,2.435 -7.47,7.304c-1.882,4.87 -3.099,12.728 -3.653,23.575l19.673,0c0.111,-9.021 -0.539,-16.422 -1.951,-22.205Z" style="fill:#333;fill-rule:nonzero;"/><path d="M669.454,95.014c-1.799,-2.85 -5.105,-4.275 -9.92,-4.275c-1.439,0 -2.974,0.276 -4.607,0.83c-1.632,0.553 -3.085,1.245 -4.358,2.075c7.582,2.822 11.373,7.941 11.373,15.356c0,2.657 -0.678,5.064 -2.034,7.222c-1.356,2.158 -3.279,3.874 -5.769,5.147c-2.49,1.272 -5.34,1.909 -8.55,1.909c-2.767,0 -5.202,-0.65 -7.305,-1.951c-2.103,-1.3 -3.735,-3.085 -4.897,-5.354c-1.162,-2.269 -1.743,-4.787 -1.743,-7.554c0,-3.431 0.954,-6.46 2.863,-9.089c1.91,-2.629 4.469,-4.801 7.679,-6.516c7.138,-3.652 16.214,-5.479 27.226,-5.479c6.475,0 11.953,0.623 16.436,1.868c4.482,1.245 8.245,3.473 11.289,6.682c2.213,2.324 3.694,5.271 4.441,8.841c0.747,3.569 1.12,8.563 1.12,14.982l0,45.489c0,2.711 0.194,4.607 0.581,5.686c0.388,1.079 1.052,1.618 1.993,1.618c0.885,0 1.701,-0.207 2.448,-0.622c0.747,-0.415 1.702,-1.038 2.864,-1.868l1.66,2.905c-2.656,2.214 -5.755,3.805 -9.297,4.773c-3.541,0.969 -7.802,1.453 -12.783,1.453c-5.976,0 -10.362,-1.204 -13.157,-3.611c-2.794,-2.407 -4.247,-5.492 -4.357,-9.255c-2.38,3.929 -5.728,7.055 -10.044,9.38c-4.317,2.324 -9.076,3.486 -14.278,3.486c-6.696,0 -11.939,-1.771 -15.73,-5.312c-3.79,-3.542 -5.686,-8.274 -5.686,-14.195c0,-5.81 1.743,-10.652 5.23,-14.526c3.486,-3.874 8.937,-7.028 16.352,-9.463c6.032,-2.158 10.501,-3.86 13.406,-5.105c2.905,-1.245 5.34,-2.739 7.305,-4.482c1.964,-1.744 2.946,-3.805 2.946,-6.185l0,-15.19c0,-3.597 -0.899,-6.82 -2.697,-9.67Zm-3.943,39.304c-5.534,5.368 -8.301,11.759 -8.301,19.175c0,8.024 2.878,12.036 8.633,12.036c2.379,0 4.482,-0.941 6.308,-2.823l0,-35.859c-0.83,1.384 -3.043,3.874 -6.64,7.471Z" style="fill:#333;fill-rule:nonzero;"/><path d="M803.432,170.717c1.411,2.352 3.86,3.528 7.346,3.528l0,3.569c-3.542,-0.332 -7.056,-0.498 -10.542,-0.498c-11.732,0 -21.582,0.775 -29.551,2.324l0,-12.036c-2.324,4.427 -5.119,7.664 -8.384,9.712c-3.265,2.047 -7.387,3.071 -12.368,3.071c-6.751,0 -12.728,-1.66 -17.93,-4.98c-5.201,-3.321 -9.296,-8.495 -12.285,-15.523c-2.988,-7.028 -4.482,-15.91 -4.482,-26.645c0,-10.017 1.549,-18.456 4.648,-25.318c3.099,-6.862 7.471,-12.008 13.116,-15.439c5.644,-3.431 12.312,-5.147 20.004,-5.147c7.416,0 13.309,1.439 17.681,4.317l0,-26.231c0,-5.257 -0.719,-9.061 -2.158,-11.413c-1.439,-2.352 -3.902,-3.528 -7.388,-3.528l0,-3.569c3.542,0.332 7.056,0.498 10.542,0.498c11.898,0 21.776,-0.803 29.634,-2.408l0,114.302c0,5.257 0.706,9.062 2.117,11.414Zm-40.716,-77.737c-5.257,0 -9.186,3.362 -11.787,10.085c-2.601,6.724 -3.901,16.975 -3.901,30.755c0,13.945 1.024,23.712 3.071,29.302c2.048,5.589 4.842,8.383 8.384,8.383c2.103,0 4.081,-0.525 5.935,-1.577c1.854,-1.051 3.362,-2.504 4.524,-4.358c1.162,-1.854 1.743,-3.943 1.743,-6.267l0,-64.082c-2.49,-1.494 -5.146,-2.241 -7.969,-2.241Z" style="fill:#333;fill-rule:nonzero;"/><path d="M828.251,161.295c1.964,4.649 4.51,8.273 7.637,10.874c3.126,2.601 6.709,3.902 10.749,3.902c2.878,0 5.244,-0.789 7.097,-2.366c1.854,-1.577 2.781,-3.888 2.781,-6.931c0,-3.154 -0.65,-5.991 -1.951,-8.508c-1.3,-2.518 -2.891,-4.76 -4.772,-6.724c-1.882,-1.965 -4.898,-4.828 -9.048,-8.591c-4.815,-4.427 -8.453,-7.941 -10.916,-10.542c-2.462,-2.601 -4.579,-5.631 -6.35,-9.09c-1.771,-3.458 -2.656,-7.291 -2.656,-11.496c0,-4.87 1.466,-9.159 4.399,-12.867c2.933,-3.707 6.835,-6.571 11.704,-8.591c4.87,-2.02 10.155,-3.03 15.855,-3.03c4.482,0 8.646,0.485 12.492,1.453c3.846,0.968 6.821,2.034 8.924,3.196c1.162,0.664 2.186,0.996 3.071,0.996c2.269,0 3.68,-1.826 4.233,-5.479l3.404,0c-0.443,5.922 -0.664,16.132 -0.664,30.63l-3.404,0c-0.885,-7.415 -3.002,-13.71 -6.35,-18.884c-3.348,-5.174 -8.204,-7.761 -14.568,-7.761c-2.877,0 -5.271,0.858 -7.18,2.573c-1.909,1.716 -2.863,4.012 -2.863,6.89c0,3.818 1.272,7.18 3.818,10.085c2.545,2.905 5.548,5.7 9.006,8.384c3.459,2.684 5.991,4.69 7.595,6.018c4.206,3.486 7.554,6.502 10.044,9.048c2.491,2.545 4.497,5.437 6.018,8.674c1.522,3.237 2.283,6.904 2.283,10.999c0,5.035 -1.535,9.559 -4.607,13.571c-3.071,4.012 -7.221,7.125 -12.451,9.339c-5.229,2.213 -10.971,3.32 -17.224,3.32c-7.083,0 -12.922,-1.439 -17.515,-4.316c-3.652,-1.882 -6.502,-2.823 -8.55,-2.823c-2.158,0 -3.735,1.965 -4.731,5.894l-3.403,0c0.442,-6.475 0.664,-17.791 0.664,-33.95l3.403,0c0.719,6.087 2.061,11.455 4.026,16.103Z" style="fill:#333;fill-rule:nonzero;"/><path d="M930.268,154.821c2.905,2.49 4.357,6.142 4.357,10.957c0,4.759 -1.452,8.384 -4.357,10.874c-2.906,2.49 -7.07,3.735 -12.493,3.735c-5.479,0 -9.657,-1.231 -12.534,-3.694c-2.878,-2.462 -4.317,-6.101 -4.317,-10.915c0,-4.815 1.439,-8.467 4.317,-10.957c2.877,-2.491 7.055,-3.736 12.534,-3.736c5.423,0 9.587,1.245 12.493,3.736Z" style="fill:#333;fill-rule:nonzero;"/></g><g><path d="M250.344,232.728c5.368,0 9.74,-0.166 13.115,-0.498l0,3.403c-6.696,3.265 -11.981,11.206 -15.854,23.824l-28.555,93.134c-3.542,-0.221 -6.53,-0.332 -8.965,-0.332c-2.269,0 -5.229,0.111 -8.882,0.332l-22.08,-67.485l-23.989,67.485c-3.542,-0.221 -6.53,-0.332 -8.965,-0.332c-2.269,0 -5.229,0.111 -8.882,0.332l-39.428,-106.084c-1.329,-3.597 -2.906,-6.281 -4.732,-8.051c-1.826,-1.771 -3.597,-2.712 -5.312,-2.823l0,-3.403c8.245,0.332 18.289,0.498 30.131,0.498c10.349,0 17.875,-0.166 22.579,-0.498l0,3.403c-2.989,0.609 -4.483,2.878 -4.483,6.807c0,2.546 0.471,5.036 1.411,7.471l24.737,69.311l14.858,-40.342l-11.538,-35.278c-0.885,-2.767 -2.02,-4.745 -3.403,-5.935c-1.384,-1.19 -3.127,-1.868 -5.23,-2.034l0,-3.403c7.637,0.332 17.432,0.498 29.385,0.498c11.787,0 20.586,-0.166 26.396,-0.498l0,3.403c-4.15,0.111 -7.124,0.609 -8.923,1.495c-1.798,0.885 -2.698,2.545 -2.698,4.98c0,1.881 0.581,4.482 1.743,7.803l22.413,68.149l13.115,-42.002c2.988,-9.795 4.482,-17.708 4.482,-23.74c0,-5.7 -1.259,-9.864 -3.777,-12.493c-2.518,-2.628 -6.156,-4.026 -10.915,-4.192l0,-3.403c8.467,0.332 15.882,0.498 22.246,0.498Z" style="fill:#333;fill-rule:nonzero;"/><path d="M282.016,306.19c0,10.902 1.896,18.663 5.686,23.284c3.791,4.62 8.426,6.931 13.904,6.931c8.246,0 15.108,-3.791 20.586,-11.372l2.905,1.079c-1.604,5.036 -3.929,9.726 -6.972,14.07c-3.044,4.344 -6.973,7.899 -11.787,10.666c-4.815,2.767 -10.404,4.151 -16.768,4.151c-11.898,0 -21.43,-3.694 -28.596,-11.082c-7.166,-7.388 -10.75,-19.161 -10.75,-35.32c0,-10.514 1.882,-19.258 5.645,-26.23c3.763,-6.973 8.923,-12.119 15.481,-15.44c6.558,-3.32 14.097,-4.98 22.62,-4.98c21.416,0 32.124,12.7 32.124,38.1l-43.912,0c-0.11,1.329 -0.166,3.376 -0.166,6.143Zm17.308,-31.584c-1.412,-5.783 -3.611,-8.675 -6.6,-8.675c-3.099,0 -5.589,2.435 -7.47,7.305c-1.882,4.87 -3.099,12.728 -3.653,23.574l19.673,0c0.111,-9.02 -0.539,-16.422 -1.95,-22.204Z" style="fill:#333;fill-rule:nonzero;"/><path d="M375.739,247.794c0.775,-4.399 2.02,-8.121 3.735,-11.165c1.716,-3.043 4.095,-5.865 7.139,-8.466c2.822,-2.435 6.516,-4.469 11.081,-6.101c4.566,-1.633 9.311,-2.449 14.236,-2.449c8.135,0 14.942,2.103 20.42,6.308c1.771,1.439 3.265,3.376 4.483,5.811c1.217,2.435 1.826,5.202 1.826,8.301c0,2.324 -0.609,4.551 -1.826,6.682c-1.218,2.13 -2.906,3.846 -5.064,5.146c-2.158,1.301 -4.565,1.951 -7.222,1.951c-4.703,0 -8.439,-1.245 -11.206,-3.735c-2.767,-2.49 -4.15,-5.949 -4.15,-10.376c0,-3.376 0.996,-6.433 2.988,-9.173c1.992,-2.739 4.925,-4.717 8.799,-5.935c-0.83,-1.051 -2.379,-1.577 -4.648,-1.577c-3.431,0 -6.088,1.079 -7.969,3.237c-1.051,1.384 -1.854,3.252 -2.407,5.604c-0.554,2.351 -0.83,5.658 -0.83,9.919l0,22.744l18.178,0l0,3.403l-18.178,0l0,67.154c0,5.257 1.203,8.895 3.61,10.915c2.408,2.02 6.074,3.03 10.999,3.03l0,3.569c-16.602,-0.442 -27.005,-0.664 -31.211,-0.664c-3.486,0 -11.317,0.222 -23.491,0.664l0,-3.569c2.379,0 4.261,-0.36 5.644,-1.079c1.384,-0.719 2.38,-1.965 2.989,-3.735c0.608,-1.771 0.913,-4.234 0.913,-7.388l0,-68.897l-10.21,0l0,-3.403l10.21,0c0,-6.751 0.387,-12.327 1.162,-16.726Z" style="fill:#333;fill-rule:nonzero;"/><path d="M498.345,272.945c7.581,7.333 11.372,19.217 11.372,35.652c0,16.38 -3.791,28.209 -11.372,35.486c-7.582,7.277 -18.345,10.916 -32.29,10.916c-14.001,0 -24.792,-3.639 -32.373,-10.916c-7.582,-7.277 -11.372,-19.106 -11.372,-35.486c0,-16.435 3.804,-28.319 11.413,-35.652c7.609,-7.332 18.386,-10.998 32.332,-10.998c13.945,0 24.708,3.666 32.29,10.998Zm-40.965,3.113c-2.186,7.139 -3.278,17.985 -3.278,32.539c0,14.499 1.092,25.29 3.278,32.373c2.186,7.084 5.078,10.625 8.675,10.625c3.597,0 6.474,-3.541 8.632,-10.625c2.159,-7.083 3.238,-17.874 3.238,-32.373c0,-14.554 -1.079,-25.4 -3.238,-32.539c-2.158,-7.138 -5.035,-10.708 -8.632,-10.708c-3.597,0 -6.489,3.57 -8.675,10.708Z" style="fill:#333;fill-rule:nonzero;"/><path d="M555.746,344.208c0.609,1.77 1.605,3.016 2.989,3.735c1.383,0.719 3.265,1.079 5.644,1.079l0,3.569c-12.174,-0.442 -20.226,-0.664 -24.155,-0.664c-3.929,0 -12.424,0.222 -25.484,0.664l0,-3.569c2.38,0 4.261,-0.36 5.645,-1.079c1.383,-0.719 2.38,-1.965 2.988,-3.735c0.609,-1.771 0.913,-4.234 0.913,-7.388l0,-96.787c0,-5.257 -0.719,-9.062 -2.158,-11.414c-1.439,-2.352 -3.901,-3.528 -7.388,-3.528l0,-3.569c3.542,0.332 7.056,0.498 10.542,0.498c11.898,0 21.748,-0.802 29.551,-2.407l0,117.207c0,3.154 0.305,5.617 0.913,7.388Z" style="fill:#333;fill-rule:nonzero;"/><path d="M609.828,344.208c0.608,1.77 1.604,3.016 2.988,3.735c1.383,0.719 3.265,1.079 5.644,1.079l0,3.569c-12.174,-0.442 -20.226,-0.664 -24.155,-0.664c-3.929,0 -12.423,0.222 -25.483,0.664l0,-3.569c2.379,0 4.261,-0.36 5.644,-1.079c1.384,-0.719 2.38,-1.965 2.988,-3.735c0.609,-1.771 0.914,-4.234 0.914,-7.388l0,-96.787c0,-5.257 -0.72,-9.062 -2.159,-11.414c-1.438,-2.352 -3.901,-3.528 -7.387,-3.528l0,-3.569c3.541,0.332 7.055,0.498 10.542,0.498c11.897,0 21.748,-0.802 29.55,-2.407l0,117.207c0,3.154 0.305,5.617 0.914,7.388Z" style="fill:#333;fill-rule:nonzero;"/><path d="M699.436,272.945c7.582,7.333 11.372,19.217 11.372,35.652c0,16.38 -3.79,28.209 -11.372,35.486c-7.581,7.277 -18.345,10.916 -32.29,10.916c-14.001,0 -24.792,-3.639 -32.373,-10.916c-7.581,-7.277 -11.372,-19.106 -11.372,-35.486c0,-16.435 3.805,-28.319 11.414,-35.652c7.609,-7.332 18.386,-10.998 32.331,-10.998c13.945,0 24.709,3.666 32.29,10.998Zm-40.964,3.113c-2.186,7.139 -3.279,17.985 -3.279,32.539c0,14.499 1.093,25.29 3.279,32.373c2.186,7.084 5.077,10.625 8.674,10.625c3.597,0 6.475,-3.541 8.633,-10.625c2.158,-7.083 3.237,-17.874 3.237,-32.373c0,-14.554 -1.079,-25.4 -3.237,-32.539c-2.158,-7.138 -5.036,-10.708 -8.633,-10.708c-3.597,0 -6.488,3.57 -8.674,10.708Z" style="fill:#333;fill-rule:nonzero;"/><path d="M834.865,265.018c6.475,0 10.819,-0.221 13.032,-0.664l0,3.569c-2.435,0.886 -4.634,2.56 -6.599,5.022c-1.964,2.463 -3.777,6.295 -5.437,11.497l-21.25,68.149c-2.933,-0.276 -5.672,-0.415 -8.218,-0.415c-2.49,0 -5.257,0.139 -8.3,0.415l-20.254,-58.769l-15.44,58.769c-2.933,-0.276 -5.672,-0.415 -8.218,-0.415c-2.434,0 -5.174,0.139 -8.217,0.415l-26.231,-75.122c-1.439,-3.984 -3.002,-6.571 -4.69,-7.761c-1.688,-1.19 -3.417,-1.785 -5.188,-1.785l0,-3.569c9.076,0.664 19.175,0.996 30.298,0.996c5.645,0 13.005,-0.332 22.08,-0.996l0,3.569c-3.486,0 -5.99,0.263 -7.512,0.789c-1.522,0.526 -2.283,1.646 -2.283,3.362c0,0.719 0.111,1.494 0.332,2.324l14.112,47.065l14.609,-56.943l0.166,0c2.38,0.221 5.091,0.332 8.135,0.332c2.269,0 5.561,-0.111 9.878,-0.332l19.341,62.173l7.304,-24.238c1.826,-6.088 2.739,-11.538 2.739,-16.353c0,-5.7 -1.258,-10.058 -3.776,-13.074c-2.518,-3.016 -5.852,-4.717 -10.003,-5.105l0,-3.569c4.261,0.443 10.791,0.664 19.59,0.664Z" style="fill:#333;fill-rule:nonzero;"/><path d="M867.827,329.432c2.906,2.49 4.358,6.143 4.358,10.957c0,4.759 -1.452,8.384 -4.358,10.874c-2.905,2.49 -7.069,3.736 -12.492,3.736c-5.479,0 -9.657,-1.232 -12.534,-3.694c-2.878,-2.463 -4.317,-6.101 -4.317,-10.916c0,-4.814 1.439,-8.467 4.317,-10.957c2.877,-2.49 7.055,-3.735 12.534,-3.735c5.423,0 9.587,1.245 12.492,3.735Z" style="fill:#333;fill-rule:nonzero;"/></g></g></g></svg>